<svg xmlns="http://www.w3.org/2000/svg" viewBox="0 0 166 198.69"><defs><style>.cls-1,.cls-4{fill:#fff;}.cls-2{fill:#64deff;}.cls-3{fill:#ec5125;}.cls-10,.cls-3,.cls-4,.cls-5,.cls-6,.cls-7,.cls-8,.cls-9{fill-rule:evenodd;}.cls-5{fill:#d53a27;}.cls-6{fill:#f4b719;}.cls-7{fill:#f68c1e;}.cls-8{fill:#1caede;}.cls-9{fill:#0d87b3;}</style></defs><g id="Layer_2" data-name="Layer 2"><g id="Layer_1-2" data-name="Layer 1"><path class="cls-1" d="M0,83a83,83,0,0,1,166,0c0,45.84-59.07,115.69-83,115.69C58.67,198.69,0,128.84,0,83Z"/><circle class="cls-2" cx="83.75" cy="83" r="74.55"/><path class="cls-3" d="M26.38,57c-.76-1.18,112.2-.51,112.2-.51s2.21.85,2.72,7.3A107.26,107.26,0,0,1,141,79s1.7,1.53-6.62,1.7-105.79-.29-105.79-.29-3.48.59-4.33-5.52,2.16-18,2.16-18Z"/><path class="cls-4" d="M26.38,57c-.14-.22,3.75-.38,10.15-.49l-8.9,23.89c-1.09-.27-2.84-1.35-3.41-5.45-.85-6.11,2.16-18,2.16-18Z"/><path class="cls-5" d="M115.82,56.35c13.36,0,22.76.11,22.76.11s2.21.85,2.72,7.3A107.26,107.26,0,0,1,141,79s1.7,1.53-6.62,1.7c-2.91.06-16.72,0-33.45,0l-23.47-.08h0l38.43-24.29Z"/><path class="cls-6" d="M29.65,81.79s8.06,42.52,9.76,43.37,88-.76,88-.76,1.19.51,3.06-7.47,6.76-38.25,6.76-38.25L29.65,81.79ZM42.47,90.7c-.34,5.18.43,27.65-.09,27.93s2.28,1.94,4.41,1.35,2-8.06,2-8.06l-.59-24.48C44.63,83,42.8,85.63,42.47,90.7Zm44,0c-.34,5.18.44,27.65-.08,27.93s2.28,1.94,4.41,1.35,2-8.06,2-8.06l-.6-24.48c-3.6-4.49-5.44-1.81-5.77,3.26Zm21.9,0c-.34,5.18.44,27.65-.09,27.93s2.29,1.94,4.42,1.35,2-8.06,2-8.06l-.59-24.48c-3.6-4.49-5.44-1.81-5.77,3.26Zm11.19,0c-.33,5.18.44,27.65-.08,27.93s2.28,1.94,4.41,1.35,2-8.06,2-8.06l-.59-24.48c-3.61-4.49-5.44-1.81-5.78,3.26Zm-21.89,0c-.34,5.18.44,27.65-.09,27.93s2.29,1.94,4.42,1.35,2-8.06,2-8.06l-.59-24.48C99.84,83,98,85.63,97.67,90.7Zm-33.31,0c-.34,5.18.44,27.65-.08,27.93s2.28,1.94,4.41,1.35,2-8.06,2-8.06l-.6-24.48c-3.6-4.49-5.44-1.81-5.77,3.26Zm11.2,0c-.34,5.18.44,27.65-.09,27.93s2.29,1.94,4.42,1.35,2-8.06,2-8.06l-.59-24.48c-3.6-4.49-5.44-1.81-5.77,3.26Zm-21.9,0c-.34,5.18.44,27.65-.08,27.93S55.86,120.57,58,120s2-8.06,2-8.06l-.6-24.48C55.83,83,54,85.63,53.66,90.7Z"/><path class="cls-4" d="M35.19,80.53l5.75,44.55s-1.08-.25-3.42-3.94-7.87-40.61-7.87-40.61Z"/><path class="cls-7" d="M85.62,125.08c21.25-.3,41.8-.68,41.8-.68s1.19.51,3.06-7.47,6.76-38.25,6.76-38.25L77.78,80.4l-.39.24,23.6.08s0,1.71-.28,4.5a6,6,0,0,1,2.73,2.22l.59,24.48s.1,7.48-2,8.06-4.94-1.08-4.42-1.35c.32-.17.16-8.55.06-16.26a66.46,66.46,0,0,1-5,12.82c-.22,2.09-.72,4.47-1.88,4.79a3.59,3.59,0,0,1-1.08.13,37.6,37.6,0,0,1-4.1,5ZM108.37,90.7c-.34,5.18.44,27.65-.09,27.93s2.29,1.94,4.42,1.35,2-8.06,2-8.06l-.59-24.48c-3.6-4.49-5.44-1.81-5.77,3.26Zm11.19,0c-.33,5.18.44,27.65-.08,27.93s2.28,1.94,4.41,1.35,2-8.06,2-8.06l-.59-24.48c-3.61-4.49-5.44-1.81-5.78,3.26Z"/><path class="cls-8" d="M98.2,42.67l20.71,30.64s6.79,2.37,9-1-1.36-8.49-1.36-8.49L106.39,36.85s-8.82-2.37-8.19,5.82ZM37.52,67,60.86,36.13s6.71,1.11,7.64,4.16S46.43,74.41,46.43,74.41,38,74.57,37.52,67Z"/><path class="cls-4" d="M98.2,42.67l10.85,16,4.31,3L100.14,37.46c-1.27.84-2.15,2.41-1.94,5.21ZM38.9,71.08,64,36.4a13.51,13.51,0,0,0-3.16-.27L37.52,67a7.51,7.51,0,0,0,1.38,4.06Z"/><path class="cls-9" d="M125.45,73.91a4,4,0,0,0,2.46-1.62c2.21-3.4-1.36-8.49-1.36-8.49L106.39,36.85s-.25-.07-.67-.14l19.73,37.2ZM67.8,39.12,42.31,73.61a11.8,11.8,0,0,0,4.12.8s23-31.06,22.07-34.12a3.07,3.07,0,0,0-.7-1.17Z"/><path class="cls-10" d="M29.38,54.68H44.52L57.17,37a7.54,7.54,0,0,1,12.26,8.77l-6.37,8.92h40.51l-6.38-8.92A7.54,7.54,0,0,1,109.45,37L122.1,54.68h15.14a7,7,0,0,1,7,7V75.57a7,7,0,0,1-5.43,6.79q-1.08,6.44-2.15,12.86c-1.38,8.28-2.74,16.56-4.13,24.83-.63,3.77-3.83,7.16-7.8,7.16H41.93c-4,0-7.17-3.38-7.8-7.16-1.39-8.27-2.75-16.55-4.13-24.83q-1.08-6.43-2.15-12.86a7,7,0,0,1-5.43-6.79V61.64a7,7,0,0,1,7-7Zm76.94,3.84h-46l-7.94,11.1A8.44,8.44,0,1,1,39.8,61.27l2-2.75H29.38a3.13,3.13,0,0,0-3.11,3.12V75.57a3.12,3.12,0,0,0,3.11,3.11H137.24a3.13,3.13,0,0,0,3.12-3.11V61.64a3.14,3.14,0,0,0-3.12-3.12H124.86l2,2.75a8.44,8.44,0,1,1-12.56,8.35l-7.94-11.1Zm18.5,12.9h0a3.7,3.7,0,0,1-5.15-.85l-19.35-27a3.69,3.69,0,0,1,.85-5.14h0a3.7,3.7,0,0,1,5.15.85l19.35,27a3.7,3.7,0,0,1-.85,5.15Zm-83,0h0A3.69,3.69,0,0,0,47,70.57l19.35-27a3.69,3.69,0,0,0-.85-5.14h0a3.7,3.7,0,0,0-5.15.85L41,66.27a3.71,3.71,0,0,0,.86,5.15ZM89.54,84.85A4.17,4.17,0,0,1,93.7,89v28a4.16,4.16,0,1,1-8.32,0V89a4.17,4.17,0,0,1,4.16-4.16Zm0,1.93h0A2.23,2.23,0,0,1,91.77,89v28a2.23,2.23,0,0,1-2.23,2.23h0A2.23,2.23,0,0,1,87.31,117V89a2.23,2.23,0,0,1,2.23-2.23Zm11,0h0A2.23,2.23,0,0,1,102.77,89v28a2.23,2.23,0,0,1-2.23,2.23h0A2.24,2.24,0,0,1,98.3,117V89a2.24,2.24,0,0,1,2.24-2.23Zm11,0h0A2.23,2.23,0,0,1,113.77,89v28a2.23,2.23,0,0,1-2.23,2.23h0A2.24,2.24,0,0,1,109.3,117V89a2.24,2.24,0,0,1,2.24-2.23Zm11,0h0A2.23,2.23,0,0,1,124.77,89v28a2.23,2.23,0,0,1-2.23,2.23h0A2.24,2.24,0,0,1,120.3,117V89a2.24,2.24,0,0,1,2.24-2.23Zm-77,0h0A2.24,2.24,0,0,1,47.78,89v28a2.24,2.24,0,0,1-2.24,2.23h0A2.23,2.23,0,0,1,43.31,117V89a2.23,2.23,0,0,1,2.23-2.23Zm11,0h0A2.24,2.24,0,0,1,58.78,89v28a2.24,2.24,0,0,1-2.24,2.23h0A2.23,2.23,0,0,1,54.31,117V89a2.23,2.23,0,0,1,2.23-2.23Zm11,0h0A2.23,2.23,0,0,1,69.77,89v28a2.23,2.23,0,0,1-2.23,2.23h0A2.23,2.23,0,0,1,65.31,117V89a2.23,2.23,0,0,1,2.23-2.23Zm11,0h0A2.23,2.23,0,0,1,80.77,89v28a2.23,2.23,0,0,1-2.23,2.23h0A2.23,2.23,0,0,1,76.31,117V89a2.23,2.23,0,0,1,2.23-2.23Zm22-1.93A4.17,4.17,0,0,1,104.7,89v28a4.16,4.16,0,1,1-8.32,0V89a4.17,4.17,0,0,1,4.16-4.16Zm11,0A4.17,4.17,0,0,1,115.7,89v28a4.16,4.16,0,1,1-8.32,0V89a4.17,4.17,0,0,1,4.16-4.16Zm11,0A4.17,4.17,0,0,1,126.7,89v28a4.16,4.16,0,1,1-8.32,0V89a4.17,4.17,0,0,1,4.16-4.16Zm-77,0A4.17,4.17,0,0,1,49.7,89v28a4.16,4.16,0,0,1-8.32,0V89a4.17,4.17,0,0,1,4.16-4.16Zm11,0A4.17,4.17,0,0,1,60.7,89v28a4.16,4.16,0,0,1-8.32,0V89a4.17,4.17,0,0,1,4.16-4.16Zm11,0A4.17,4.17,0,0,1,71.7,89v28a4.16,4.16,0,1,1-8.32,0V89a4.17,4.17,0,0,1,4.16-4.16Zm11,0A4.17,4.17,0,0,1,82.7,89v28a4.16,4.16,0,1,1-8.32,0V89a4.17,4.17,0,0,1,4.16-4.16Zm56.3-2.32H31.78q1,6,2,12.06,2.07,12.41,4.12,24.83c.37,2.17,2.17,3.94,4,3.94h82.76c1.83,0,3.64-1.77,4-3.94q2.07-12.42,4.13-24.83l2-12.06Z"/></g></g></svg>