<svg xmlns="http://www.w3.org/2000/svg" viewBox="0 0 166 198.69"><defs><style>.cls-1{fill:#fff;}.cls-2{fill:#ffa362;}.cls-3{fill:#bcbcbc;}.cls-4{fill:#6a6a6a;}.cls-5{fill:#64deff;}.cls-6{fill:#506e93;}</style></defs><g id="Layer_2" data-name="Layer 2"><g id="Layer_1-2" data-name="Layer 1"><path class="cls-1" d="M0,83a83,83,0,0,1,166,0c0,45.84-59.07,115.69-83,115.69C58.67,198.69,0,128.84,0,83Z"/><circle class="cls-2" cx="83.75" cy="83" r="74.55"/><path class="cls-3" d="M47,136a12.85,12.85,0,0,1-6.83-1.78,13.26,13.26,0,0,1-5.31-6.88c-2.11-6.44,1.65-12.71,2.88-14.77,4.22-7,10-9.39,16.71-12.14,6.32-2.59,12.85-5.27,18.61-12.12a39.37,39.37,0,0,0,8-16.14l20.59,14.39A48.33,48.33,0,0,0,83.12,96.91c-7.26,6.6-10.44,13.89-13.25,20.32-3,7-5.67,13-12.84,16.39a24.84,24.84,0,0,1-10,2.39Z"/><path class="cls-4" d="M86.73,76.14A39.29,39.29,0,0,1,78.91,91.7c-5.76,6.86-12.29,9.54-18.61,12.13C53.59,106.58,47.8,109,43.59,116c-1.24,2.06-5,8.33-2.89,14.76a13.73,13.73,0,0,0,2.92,4.9,11.3,11.3,0,0,1-3.41-1.4,13.11,13.11,0,0,1-5.31-6.88c-2.11-6.43,1.65-12.7,2.88-14.76,4.21-7,10-9.4,16.71-12.14,6.32-2.6,12.85-5.27,18.61-12.13a39.49,39.49,0,0,0,8-16.14Z"/><path d="M82.19,75.29l8.58,6L97.49,86A49,49,0,0,0,81.83,95.5c-7.56,6.87-10.83,14.36-13.71,21-3,6.9-5.39,12.35-11.9,15.42A23.33,23.33,0,0,1,47,134.1a10.86,10.86,0,0,1-5.82-1.5,11.38,11.38,0,0,1-4.5-5.85c-1.84-5.61,1.58-11.31,2.7-13.18,3.89-6.48,9.41-8.74,15.8-11.36,6.23-2.55,13.28-5.45,19.34-12.66a40.3,40.3,0,0,0,7.63-14.26M79.81,69a38.92,38.92,0,0,1-8.17,18.13C60.17,100.74,44.8,97.18,36.15,111.6c-1.27,2.11-5.45,9.08-3.07,16.34a15.25,15.25,0,0,0,6.13,7.92A14.77,14.77,0,0,0,47,137.92a26.87,26.87,0,0,0,10.81-2.58c14.67-6.91,11.68-23.49,26.55-37a48.46,48.46,0,0,1,21.7-11L79.81,69Z"/><path class="cls-3" d="M147.81,58.52a5,5,0,0,1-1.52,3.6l-30.16,29.7a26.28,26.28,0,0,1-37-.14L61.44,74,79.33,56.4,110.25,26a5.08,5.08,0,0,1,7.16,0l.16.17a5,5,0,0,1,1.48,3.45,1.09,1.09,0,0,1,0,.18,5,5,0,0,1-1.53,3.6L98.18,52.25a4.84,4.84,0,0,0,3.42,8.26A4.79,4.79,0,0,0,105,59.08l19.51-18.89a5.08,5.08,0,0,1,7.13.06l.64.63a5,5,0,0,1,1.49,3.67,5.1,5.1,0,0,1-1.6,3.63L112.17,67a4.88,4.88,0,0,0-.21,6.78l.17.18a4.87,4.87,0,0,0,3.56,1.56,4.81,4.81,0,0,0,3.4-1.4l20.12-19.32a5.08,5.08,0,0,1,7.11.08A5,5,0,0,1,147.81,58.52Z"/><path class="cls-4" d="M119.05,29.61a8.67,8.67,0,0,0-5.12.55,8,8,0,0,0-2.68,2C109,34.71,98,45.34,82.4,60.28c-1-1.29-2.05-2.58-3.07-3.88L110.25,26a5.08,5.08,0,0,1,7.16,0l.16.17A5,5,0,0,1,119.05,29.61Z"/><path d="M113.81,26.41a3.16,3.16,0,0,1,2.25.93l.17.17a3.16,3.16,0,0,1,0,4.51L96.85,50.88l0,0,0,0a6.75,6.75,0,0,0,9.55,9.53l19.51-18.9a3.19,3.19,0,0,1,4.45,0l.64.64a3.16,3.16,0,0,1-.07,4.55l-20,18.86,0,0h0a6.79,6.79,0,0,0-.26,9.43l.18.19a6.72,6.72,0,0,0,9.67.23l20.12-19.31a3.19,3.19,0,0,1,4.44,0,3.12,3.12,0,0,1,.93,2.26,3.17,3.17,0,0,1-.94,2.25L114.79,90.45a24.37,24.37,0,0,1-34.34-.13L64.15,74l47.44-46.7a3.15,3.15,0,0,1,2.22-.91m0-3.82a7,7,0,0,0-4.9,2L58.73,74l19,19a28.21,28.21,0,0,0,39.73.16l30.16-29.7a7,7,0,0,0-9.75-10L117.75,72.79a2.95,2.95,0,0,1-4.21-.09l-.17-.19a2.93,2.93,0,0,1,.11-4.09l20-18.86a7,7,0,0,0,.15-10l-.63-.64a7,7,0,0,0-9.81-.08L103.67,57.73a2.92,2.92,0,0,1-4.26-.13,2.92,2.92,0,0,1,.11-4l19.34-18.85a7,7,0,0,0,.07-10l-.17-.17a7,7,0,0,0-5-2Z"/><path class="cls-5" d="M126.46,127.32a13.81,13.81,0,0,1-2.77,4.73,11.49,11.49,0,0,1-2.51,2.11,12.75,12.75,0,0,1-6.78,1.77,24.71,24.71,0,0,1-10-2.39c-7.13-3.36-9.76-9.38-12.8-16.34-2.81-6.44-6-13.74-13.26-20.35a45.55,45.55,0,0,0-10.45-7.11,52.48,52.48,0,0,0-8-3.2L80.32,72.33a39.61,39.61,0,0,0,8,16c5.77,6.87,12.6,9.67,18.64,12.15,6.69,2.74,12.47,5.11,16.66,12.1C124.81,114.68,128.56,120.92,126.46,127.32Z"/><path class="cls-6" d="M123.69,132.05a11.49,11.49,0,0,1-2.51,2.11,12.75,12.75,0,0,1-6.78,1.77,24.71,24.71,0,0,1-10-2.39c-7.13-3.36-9.76-9.38-12.8-16.34-2.81-6.44-6-13.74-13.26-20.35a45.55,45.55,0,0,0-10.45-7.11l8.85-4.86a86.74,86.74,0,0,1,9.36,10.21c11.69,15,11.69,25.52,21.78,32.26,2.85,1.9,7.77,4.35,15.75,4.68C123.68,132,123.69,132,123.69,132.05Z"/><path d="M79.16,75.58a40.55,40.55,0,0,0,7.59,14.08c6.08,7.25,13.16,10.15,19.41,12.72s11.86,4.86,15.71,11.28c1.11,1.85,4.5,7.51,2.69,13a11.22,11.22,0,0,1-4.42,5.76,10.77,10.77,0,0,1-5.74,1.47,23.3,23.3,0,0,1-9.1-2.19c-6.45-3-8.81-8.47-11.81-15.34-2.89-6.62-6.17-14.13-13.76-21a49.28,49.28,0,0,0-15.4-9.42l6.45-4.51,8.38-5.85M81.64,69,55.34,87.34a48.36,48.36,0,0,1,21.7,11c14.88,13.53,11.89,30.11,26.56,37a26.81,26.81,0,0,0,10.8,2.58,14.82,14.82,0,0,0,7.84-2.06,15.15,15.15,0,0,0,6.12-7.92c2.38-7.26-1.8-14.23-3.06-16.34-8.65-14.42-24-10.86-35.49-24.51A38.82,38.82,0,0,1,81.64,69Z"/><path class="cls-5" d="M82,82.31a20.19,20.19,0,0,1-3.72,5.09,20.83,20.83,0,0,1-9.77,5.49,25.62,25.62,0,0,1-6.29.76c-8.77,0-17.84-4.05-24.9-11.1C25,70.22,22.59,52.41,31.76,42.31c.21-.25.44-.49.67-.72a20.55,20.55,0,0,1,7.85-4.91,24.6,24.6,0,0,1,8.22-1.34c8.77,0,17.84,4,24.89,11.1A36.86,36.86,0,0,1,84.31,68.15,24.65,24.65,0,0,1,82,82.31Z"/><path class="cls-6" d="M68.87,91.82c-.14.36-.27.71-.4,1.07a25.62,25.62,0,0,1-6.29.76c-8.77,0-17.84-4.05-24.9-11.1C25,70.22,22.59,52.41,31.76,42.31l.47.23a37,37,0,0,0,0,16.34C37.84,82.94,67,91.31,68.87,91.82Z"/><path d="M74.81,45C67.12,37.34,57.42,33.34,48.5,33.34v4c8.24,0,16.8,3.83,23.48,10.51A34.91,34.91,0,0,1,82.33,68.36c.78,7-1.17,13.3-5.5,17.62a20.15,20.15,0,0,1-14.65,5.67c-8.24,0-16.8-3.84-23.48-10.52A34.86,34.86,0,0,1,28.36,60.62c-.78-7,1.17-13.29,5.49-17.62A20.2,20.2,0,0,1,48.5,37.34v-4h0A24.3,24.3,0,0,0,31,40.17C20.27,50.93,22.44,70.53,35.87,84c7.69,7.69,17.4,11.69,26.31,11.69a24.27,24.27,0,0,0,17.48-6.84C90.41,78.06,88.24,58.46,74.81,45Z"/></g></g></svg>