<svg xmlns="http://www.w3.org/2000/svg" viewBox="0 0 166 198.69"><defs><style>.cls-1{isolation:isolate;}.cls-2{fill:#fff;}.cls-3{fill:#003f77;}.cls-4,.cls-6{fill:#fcb63b;}.cls-5,.cls-6{mix-blend-mode:multiply;}</style></defs><g class="cls-1"><g id="Layer_2" data-name="Layer 2"><g id="Layer_1-2" data-name="Layer 1"><path class="cls-2" d="M0,83a83,83,0,0,1,166,0c0,45.84-59.07,115.69-83,115.69C58.67,198.69,0,128.84,0,83Z"/><path class="cls-3" d="M157.91,82.77A74.39,74.39,0,1,1,83.52,8.38,74.39,74.39,0,0,1,157.91,82.77Z"/><path class="cls-4" d="M78.58,135.11c-.78,0-1.56,0-2.33-.06l-.77-.05-1.55-.12-.89-.1c-.46-.05-.94-.11-1.4-.18l-.91-.14c-.46-.07-.91-.15-1.36-.24l-.9-.18-1.37-.32-.21-.05-.63-.15-1.54-.44-.61-.18c-.7-.22-1.39-.45-2.06-.69l-.56-.22-.26-.1c-.47-.18-.86-.33-1.23-.49l-.76-.32-.19-.09L58,130.52,57,130l-.95-.49L55,129l-.86-.5-.12-.06c-.3-.18-.62-.36-.92-.55l-.73-.47a47.77,47.77,0,0,1-4.07-2.93l-.29-.22c-.41-.33-.8-.67-1.19-1l-.43-.37-1.13-1-.41-.39q-.55-.54-1.11-1.11l-.32-.33c-.39-.41-.77-.82-1.14-1.24l-.12-.15a48.71,48.71,0,0,1-5.74-8c-.36-.64-.67-1.21-1-1.79a48,48,0,0,1-5.37-22.17A48.51,48.51,0,0,1,78.58,38.19a49.08,49.08,0,0,1,11.75,1.43,2.35,2.35,0,0,1,0,4.57,27.74,27.74,0,1,0,18.4,52.06l.31-.14a28.72,28.72,0,0,0,3.14-1.78l.35-.23c.43-.3.86-.6,1.27-.91l.13-.1c.52-.4,1-.78,1.41-1.17l.3-.27c.37-.33.72-.67,1.07-1l.25-.25c.41-.42.8-.85,1.18-1.3l.22-.27c.31-.37.62-.76.91-1.16l.25-.33c.34-.47.67-1,1-1.46l.09-.16c.29-.47.55-.93.81-1.39l.2-.39c.28-.53.54-1.06.78-1.61a2.38,2.38,0,0,1,2.16-1.4l.4,0a2.37,2.37,0,0,1,2,2.15c.09,1.27.14,2.43.14,3.55A48.52,48.52,0,0,1,78.58,135.11Z"/><path d="M78.58,40.54a46.26,46.26,0,0,1,11.18,1.37,30.09,30.09,0,1,0,20,56.48l.33-.16a29.3,29.3,0,0,0,3.41-1.93l.38-.25q.7-.48,1.38-1l.2-.15c.5-.39,1-.8,1.47-1.22l.33-.3c.39-.36.78-.72,1.15-1.1l.27-.27c.44-.46.87-.93,1.28-1.41l.23-.28c.35-.42.68-.84,1-1.28.09-.11.18-.23.26-.35q.57-.78,1.08-1.59l.11-.19c.31-.48.59-1,.87-1.49l.22-.42c.3-.57.59-1.15.85-1.74.08,1.11.14,2.23.14,3.37a46.1,46.1,0,0,1-46.11,46.11q-1.11,0-2.22-.06l-.73,0c-.49,0-1-.07-1.47-.12-.29,0-.57-.06-.85-.09L72,132.27l-.87-.13-1.29-.23-.86-.17-1.3-.3-.8-.2q-.73-.19-1.47-.42l-.59-.17c-.65-.2-1.31-.42-1.95-.66l-.78-.3-1.17-.46-.9-.39-1-.46c-.32-.14-.63-.3-.94-.45l-.91-.47-1-.52c-.28-.15-.55-.31-.82-.47s-.67-.38-1-.59l-.7-.44a46.2,46.2,0,0,1-3.87-2.78l-.28-.22c-.38-.31-.76-.64-1.13-1l-.41-.35-1.07-1-.39-.37c-.36-.35-.71-.7-1.06-1.06l-.3-.32c-.37-.39-.73-.78-1.09-1.18l-.12-.14a45.87,45.87,0,0,1-5.45-7.64l0-.06c-.3-.54-.6-1.09-.88-1.64l0-.07a46.1,46.1,0,0,1,41-67.12m0-4.71A50.87,50.87,0,0,0,27.76,86.64a50.3,50.3,0,0,0,5.6,23.17l0,.08c.31.61.64,1.22,1,1.8l0,.06a50.6,50.6,0,0,0,6,8.43l.13.16,1.2,1.3.06.06.28.29q.57.58,1.17,1.17l.42.4c.39.37.78.73,1.19,1.09l.32.28.12.11c.42.36.83.71,1.25,1l.24.19.06,0a50.37,50.37,0,0,0,4.28,3.07l.18.12.58.37,1.05.63.94.54,1.07.57c.33.18.66.35,1,.51l1,.51,1.1.5.16.07.84.36,1.25.49.29.11.61.24c.73.26,1.45.51,2.16.73l.46.14.18.05,1.62.46.65.16.23,0q.72.18,1.44.33c.29.07.59.12.89.18h0l1.43.26,1,.14c.49.07,1,.14,1.47.19l.16,0,.77.08,1.63.13h.22l.57,0c.87,0,1.67.06,2.45.06A50.88,50.88,0,0,0,129.4,86.64c0-1.18-.05-2.4-.15-3.73a4.73,4.73,0,0,0-3.9-4.29,5.52,5.52,0,0,0-.8-.07,4.71,4.71,0,0,0-4.31,2.81c-.19.44-.42.91-.71,1.47l-.19.35c-.25.46-.49.88-.73,1.26l-.11.18c-.26.41-.55.85-.9,1.33l-.12.16-.1.13q-.41.56-.84,1.08l-.13.16-.06.07c-.35.41-.71.81-1.09,1.2l-.08.08L115,89c-.32.32-.64.63-1,.93L114,90l-.17.15c-.43.38-.84.72-1.24,1l-.17.12c-.36.28-.75.56-1.16.84l-.32.21A25.61,25.61,0,0,1,108,94l-.26.12A25.14,25.14,0,0,1,97,96.49a25.38,25.38,0,0,1-6.13-50,4.71,4.71,0,0,0,0-9.15,51.74,51.74,0,0,0-12.32-1.5Z"/><path class="cls-4" d="M97,101.2a30.09,30.09,0,0,1-7.27-59.29,46.11,46.11,0,1,0,34.93,44.73c0-1.14-.06-2.26-.14-3.37A30.08,30.08,0,0,1,97,101.2Z"/><g class="cls-5"><path class="cls-4" d="M124.55,83.27a30.24,30.24,0,0,1-16.78,16,42.78,42.78,0,0,1-74.18-2.51,46.11,46.11,0,0,0,91.1-10.08C124.69,85.5,124.63,84.38,124.55,83.27Z"/></g><polygon class="cls-4" points="91.97 64.05 94.77 69.73 101.03 70.64 96.5 75.06 97.57 81.29 91.97 78.35 86.37 81.29 87.44 75.06 82.91 70.64 89.18 69.73 91.97 64.05"/><path class="cls-6" d="M96.59,75c-.28,0-.56,0-.86,0a6,6,0,0,1-6.2-6l-.35.71-6.27.91,4.53,4.42-1.07,6.23L92,78.35l5.6,2.94L96.5,75.06Z"/><path d="M92,64.05l2.8,5.68,6.26.91L96.5,75.06l1.07,6.23L92,78.35l-5.6,2.94,1.07-6.23-4.53-4.42,6.27-.91.35-.71h0l2.44-5m0-3.91h0a3.92,3.92,0,0,0-3.51,2.19l-1.88,3.82-4.23.62a3.91,3.91,0,0,0-2.17,6.67l3.06,3-.73,4.21a3.91,3.91,0,0,0,5.68,4.13l3.78-2,3.78,2a3.92,3.92,0,0,0,5.68-4.13l-.72-4.21,3.06-3a3.92,3.92,0,0,0-2.18-6.67l-4.22-.62-1.89-3.83A3.92,3.92,0,0,0,92,60.14Z"/><polygon class="cls-4" points="110.02 28.24 113.39 35.06 120.93 36.16 115.48 41.48 116.76 48.98 110.02 45.44 103.28 48.98 104.57 41.48 99.11 36.16 106.65 35.06 110.02 28.24"/><path class="cls-6" d="M115.58,41.38c-.34,0-.68.07-1,.07-4.77,0-7.26-3.55-7.46-7.25l-.43.86-7.54,1.1,5.46,5.32L103.28,49,110,45.44,116.76,49l-1.28-7.5Z"/><path d="M110,28.24l3.37,6.82,7.54,1.1-5.36,5.22h0l-.1.1,1.28,7.5L110,45.44,103.28,49l1.29-7.5-5.46-5.32,7.54-1.1L110,28.24m5.56,13.14h0M110,23.53a4.69,4.69,0,0,0-4.22,2.62l-2.28,4.61-5.08.74a4.7,4.7,0,0,0-2.61,8l3.68,3.59-.87,5.07a4.72,4.72,0,0,0,4.64,5.51,4.66,4.66,0,0,0,2.2-.55L110,50.77l4.55,2.39a4.72,4.72,0,0,0,6.84-5l-.87-5.07,3.68-3.59a4.71,4.71,0,0,0-2.61-8l-5.09-.74-2.27-4.61A4.71,4.71,0,0,0,110,23.53Z"/><polygon class="cls-4" points="123.53 55.17 126.61 61.42 133.51 62.42 128.52 67.29 129.7 74.17 123.53 70.92 117.36 74.17 118.54 67.29 113.55 62.42 120.44 61.42 123.53 55.17"/><path class="cls-6" d="M128.61,67.2a7.12,7.12,0,0,1-1,.06c-4.36,0-6.64-3.24-6.83-6.63l-.39.79-6.9,1,5,4.87-1.18,6.87,6.17-3.24,6.17,3.24-1.18-6.87Z"/><path d="M123.53,55.17l3.08,6.25,6.9,1-4.9,4.78h0l-.09.09,1.18,6.87-6.17-3.24-6.17,3.24,1.18-6.87-5-4.87,6.9-1,.39-.79h0l2.7-5.47m5.08,12h0m-5.09-16.34a4.31,4.31,0,0,0-3.87,2.41l-2.08,4.21-4.65.67a4.32,4.32,0,0,0-2.4,7.36l3.37,3.28-.79,4.64A4.3,4.3,0,0,0,119.36,78l4.17-2.19L127.69,78a4.33,4.33,0,0,0,2,.5,4.33,4.33,0,0,0,4.25-5l-.8-4.64,3.37-3.28a4.32,4.32,0,0,0-2.39-7.36l-4.66-.67-2.08-4.21a4.31,4.31,0,0,0-3.86-2.41Z"/></g></g></g></svg>