<svg xmlns="http://www.w3.org/2000/svg" viewBox="0 0 166 198.69"><defs><style>.cls-1{fill:#fff;}.cls-2{fill:#91ce6e;}.cls-3{fill:#d96a28;}.cls-4{fill:#b04625;}.cls-5{fill:#326fb6;}.cls-6{fill:#194a7a;}</style></defs><g id="Layer_2" data-name="Layer 2"><g id="Layer_1-2" data-name="Layer 1"><path class="cls-1" d="M0,83a83,83,0,0,1,166,0c0,45.84-59.07,115.69-83,115.69C58.67,198.69,0,128.84,0,83Z"/><circle class="cls-2" cx="83" cy="83" r="74.55"/><path class="cls-3" d="M38.46,129.47A3.45,3.45,0,0,1,35,126V93.45A3.45,3.45,0,0,1,38.46,90H50.71c5,0,9.18-1.6,11.53-4.39a5.75,5.75,0,0,0,1.54-4.55c-.66-3.78-4.32-4.19-5.86-4.19-3,0-5.58,1.39-6,2.63-.27.87.75,2.23,2.67,3.55l5.16,3.55-6.21.76a10.4,10.4,0,0,1-1.34.09,8.21,8.21,0,0,1-8.42-8.56,11.21,11.21,0,0,1,3.81-8.25c1.9-1.72,5.39-3.77,11.15-3.77l.88,0A16.68,16.68,0,0,1,75,78.63,14.82,14.82,0,0,1,74.35,90h45.77a3.44,3.44,0,0,1,3.42,3.45V126a3.44,3.44,0,0,1-3.42,3.45Z"/><path d="M58.77,69.25h.8c12.67.45,18.27,16.49,9.8,23.11h50.75a1.07,1.07,0,0,1,1,1.08V126a1.07,1.07,0,0,1-1,1.08H38.46A1.07,1.07,0,0,1,37.41,126V93.45a1.07,1.07,0,0,1,1.05-1.08H50.71c10.68,0,16.31-6.56,15.41-11.73-.77-4.41-4.48-6.15-8.2-6.15-6.31,0-12.63,5-4.64,10.5a7.82,7.82,0,0,1-1.05.07c-9.13,0-8.65-15.82,6.54-15.82m0-4.75h0c-7,0-12.67,2.85-15.55,7.83a12.36,12.36,0,0,0-.29,12.3,10.13,10.13,0,0,0,2.59,3H38.46a5.82,5.82,0,0,0-5.8,5.83V126a5.82,5.82,0,0,0,5.8,5.83h81.66a5.82,5.82,0,0,0,5.8-5.83V93.45a5.82,5.82,0,0,0-5.8-5.83H77.7a18,18,0,0,0-.47-9.73A19,19,0,0,0,59.74,64.51ZM54.66,80a7,7,0,0,1,3.26-.77c3.13,0,3.42,1.67,3.52,2.21a3.58,3.58,0,0,1-1,2.62l0,0-4.41-3A9.65,9.65,0,0,1,54.66,80Z"/><polygon class="cls-4" points="42.49 100.62 103.98 100.62 42.98 102.62 42.49 100.62"/><rect class="cls-4" x="83.65" y="106.87" width="29.77" height="1.5"/><polygon class="cls-4" points="48.1 113.13 117.99 114.86 117.99 116.36 48.1 116.36 48.1 113.13"/><rect class="cls-4" x="37.41" y="124.87" width="38.58" height="1.94"/><polygon class="cls-4" points="84.73 92.37 87.54 94.12 121.17 94.12 121.17 92.37 84.73 92.37"/><polygon class="cls-3" points="74.97 89.9 108.45 54.03 115.01 60.8 85.75 89.9 74.97 89.9"/><path d="M108.48,57.48l1.59,1.64,1.6,1.65L84.77,87.52H80.44l28-30m-.06-6.9L105,54.23,77,84.28l-7.46,8H86.73l1.39-1.39L115,64.14l3.32-3.3-3.26-3.37-1.59-1.65-1.6-1.65-3.47-3.59Z"/><polygon class="cls-5" points="110.07 59.12 82.57 87.53 80.44 87.53 108.48 57.48 110.07 59.12"/><polygon class="cls-6" points="111.67 60.77 84.77 87.53 82.57 87.53 110.07 59.12 111.67 60.77"/><path class="cls-3" d="M108.06,69.74a3.35,3.35,0,0,1-2.42-1l-5-5.11a3.42,3.42,0,0,1-.15-4.61L121.7,34.06a5.63,5.63,0,0,1,8.37-.28l4.66,4.81a5.88,5.88,0,0,1-.28,8.43L110.31,68.87a3.36,3.36,0,0,1-2.25.87Z"/><path d="M126,34.43a3.23,3.23,0,0,1,2.35,1l2.33,2.4h0L133,40.25a3.5,3.5,0,0,1-.16,5L108.72,67.11a1,1,0,0,1-.66.25,1,1,0,0,1-.72-.3l-2.47-2.56-2.48-2.56a1,1,0,0,1,0-1.41L123.51,35.6a3.26,3.26,0,0,1,2.5-1.17m0-4.75a8,8,0,0,0-6.13,2.84L98.72,57.45a5.8,5.8,0,0,0,.25,7.8l2.48,2.56,2.48,2.56a5.79,5.79,0,0,0,4.13,1.75,5.71,5.71,0,0,0,3.84-1.49l24.15-21.85a8.26,8.26,0,0,0,.38-11.84l-2.33-2.41-2.33-2.4A8,8,0,0,0,126,29.68Z"/><path class="cls-3" d="M104.7,70.21a5.34,5.34,0,0,1-3.88-1.64,5.81,5.81,0,0,1,.11-8l1.71-1.76,7.76,8-1.6,1.65a5.74,5.74,0,0,1-4.1,1.76Z"/><path d="M102.64,62.2l2.23,2.3,2.22,2.3a3.33,3.33,0,0,1-2.39,1,3,3,0,0,1-2.17-.92,3.42,3.42,0,0,1,.11-4.72m0-6.83L99.23,58.9a8.2,8.2,0,0,0-.12,11.32,7.7,7.7,0,0,0,5.59,2.37,8.14,8.14,0,0,0,5.8-2.48l3.21-3.31-3.2-3.31-2.23-2.3-2.23-2.29-3.41-3.53Z"/><path class="cls-5" d="M104.87,64.5l-2.34,2.42a3.42,3.42,0,0,1,.11-4.72Z"/><path class="cls-6" d="M107.09,66.8a3.16,3.16,0,0,1-4.56.12l2.34-2.42Z"/><path class="cls-3" d="M130.69,37.84,104.87,64.5l-2.48-2.56a1,1,0,0,1,0-1.41L123.51,35.6a3.25,3.25,0,0,1,4.85-.16Z"/><path class="cls-4" d="M132.86,45.25,108.72,67.11a1,1,0,0,1-1.38,0l-2.47-2.56,25.82-26.66L133,40.25A3.5,3.5,0,0,1,132.86,45.25Z"/></g></g></svg>