<svg xmlns="http://www.w3.org/2000/svg" viewBox="0 0 166 198.69"><defs><style>.cls-1{isolation:isolate;}.cls-18,.cls-2{fill:#fff;}.cls-3{fill:#a0e1e5;}.cls-4{fill:#fedf06;}.cls-5{fill:#1d1e1c;}.cls-6{fill:#c7b301;}.cls-7,.cls-8{fill:#feee5d;}.cls-10,.cls-17,.cls-18,.cls-8,.cls-9{stroke:#14172c;}.cls-10,.cls-8{stroke-miterlimit:10;}.cls-8{stroke-width:5px;}.cls-17,.cls-9{fill:none;}.cls-17,.cls-18,.cls-9{stroke-linecap:round;stroke-linejoin:round;}.cls-9{stroke-width:2px;}.cls-10{fill:#fbfbfa;stroke-width:2.81px;}.cls-11{fill:#959493;}.cls-12{fill:#b7b5b4;}.cls-13{fill:#ededed;}.cls-14{fill:#50bceb;}.cls-15{fill:#de103a;}.cls-16{fill:#c9caca;mix-blend-mode:multiply;}.cls-17,.cls-18{stroke-width:3px;}</style></defs><g class="cls-1"><g id="Layer_2" data-name="Layer 2"><g id="Layer_1-2" data-name="Layer 1"><path class="cls-2" d="M0,83a83,83,0,0,1,166,0c0,45.84-59.07,115.69-83,115.69C58.67,198.69,0,128.84,0,83Z"/><circle class="cls-3" cx="83" cy="83" r="74.55"/><path class="cls-4" d="M97.63,53.86A15.11,15.11,0,1,1,112,43.39,15.07,15.07,0,0,1,97.63,53.86Zm0-22.6a7.48,7.48,0,0,0-2.3,14.6,7.24,7.24,0,0,0,2.3.37,7.48,7.48,0,0,0,2.3-14.6A7.28,7.28,0,0,0,97.63,31.26Z"/><path class="cls-5" d="M97.63,25.63a13.11,13.11,0,1,1-12.48,9.08,13.19,13.19,0,0,1,12.48-9.08m0,22.6a9.48,9.48,0,1,0-2.92-.46,9.5,9.5,0,0,0,2.92.46m0-26.6a17.11,17.11,0,1,0,5.26.83,17.06,17.06,0,0,0-5.26-.83Zm0,22.6A5.43,5.43,0,0,1,95.94,44a5.48,5.48,0,0,1,1.69-10.7h0a5.37,5.37,0,0,1,1.68.27,5.48,5.48,0,0,1-1.68,10.7Z"/><path class="cls-6" d="M100.5,47.77A9.43,9.43,0,0,1,89.76,44a4.91,4.91,0,0,1-2.29,3,13,13,0,0,0,13,4.52A4,4,0,0,1,100.5,47.77Z"/><path class="cls-4" d="M85.1,56.57l4-12.46a6.44,6.44,0,0,1,12.25,4l-4,12.46Z"/><path class="cls-5" d="M95.25,41.66a4.6,4.6,0,0,1,1.37.21,4.45,4.45,0,0,1,2.86,5.59L96.06,58l-8.44-2.73L91,44.73a4.44,4.44,0,0,1,4.22-3.07m0-4a8.4,8.4,0,0,0-8,5.84L83.82,54.05l-1.23,3.8,3.8,1.23,8.44,2.73L98.64,63l1.23-3.8,3.41-10.55a8.45,8.45,0,0,0-5.43-10.62,8.22,8.22,0,0,0-2.6-.41Z"/><path class="cls-4" d="M77.68,64.33l2.87-8.88a5.43,5.43,0,0,1,5.17-3.78,4.44,4.44,0,0,1,.63,0A34.58,34.58,0,0,1,93,53.15a35.67,35.67,0,0,1,6.21,2.7,5.46,5.46,0,0,1,2.51,6.44l-2.87,8.88Z"/><path class="cls-5" d="M85.72,53.67l.4,0A33,33,0,0,1,98.21,57.6a3.45,3.45,0,0,1,1.58,4.07l-2.25,7L80.2,63.05l2.26-7a3.45,3.45,0,0,1,3.26-2.4m0-4a7.43,7.43,0,0,0-7.07,5.17l-2.26,7-1.23,3.8L79,66.85,96.3,72.46l3.81,1.23,1.23-3.81,2.26-7a7.45,7.45,0,0,0-3.44-8.79,36.81,36.81,0,0,0-6.57-2.86,37.21,37.21,0,0,0-7-1.53,8.46,8.46,0,0,0-.87,0Z"/><path class="cls-7" d="M99.92,60.13a3.45,3.45,0,0,0-1.71-2.53,33,33,0,0,0-12.09-3.91,3.39,3.39,0,0,0-2.86,1.05l.52.1A65.22,65.22,0,0,1,99.43,59.9Z"/><circle class="cls-8" cx="78.46" cy="98.04" r="40.2" transform="translate(-12.27 11.23) rotate(-7.6)"/><circle class="cls-4" cx="78.46" cy="98.04" r="39.14" transform="matrix(1, -0.04, 0.04, 1, -3.44, 2.86)"/><circle class="cls-6" cx="78.46" cy="98.04" r="35.98" transform="translate(-46.35 84.2) rotate(-45)"/><path class="cls-9" d="M72.62,62.54a35.79,35.79,0,1,0,5.63-.48c-.52,0-1,0-1.56,0l-.62,0"/><circle class="cls-10" cx="78.46" cy="98.04" r="31.05" transform="translate(-40.42 138.49) rotate(-70.12)"/><polygon class="cls-11" points="75.6 92.46 55.57 109.75 81.32 103.63 75.6 92.46"/><polygon class="cls-12" points="75.6 92.46 101.35 86.34 81.32 103.63 75.6 92.46"/><path class="cls-2" d="M75,99.85l0-.07a3.85,3.85,0,0,1,1.67-5.18l.07,0a3.85,3.85,0,0,1,5.19,1.68l0,.07a3.85,3.85,0,0,1-1.67,5.18l-.07,0A3.87,3.87,0,0,1,75,99.85Z"/><polygon class="cls-13" points="68.18 98.87 54 90.14 70.61 91.36 66.75 75.16 77.64 87.76 86.37 73.58 85.15 90.19 101.35 86.34 88.74 97.22 102.92 105.95 86.31 104.73 90.17 120.93 79.28 108.33 70.55 122.51 71.77 105.9 55.57 109.75 68.18 98.87"/><polygon class="cls-14" points="72.2 98.45 80.11 123.7 84.72 97.64 72.2 98.45"/><polygon class="cls-15" points="72.2 98.45 76.81 72.39 84.72 97.64 72.2 98.45"/><path class="cls-2" d="M78.75,101.92h-.08a3.85,3.85,0,0,1-4.09-3.6v-.07a3.85,3.85,0,0,1,3.59-4.1h.08a3.85,3.85,0,0,1,4.09,3.59v.08A3.85,3.85,0,0,1,78.75,101.92Z"/><polygon class="cls-16" points="84.73 98.22 79.2 72.35 72.19 97.86 77.72 123.74 84.73 98.22"/><polygon class="cls-17" points="72.2 98.45 80.11 123.7 84.72 97.64 72.2 98.45"/><polygon class="cls-17" points="72.2 98.45 76.81 72.39 84.72 97.64 72.2 98.45"/><path class="cls-18" d="M78.75,101.92h-.08a3.85,3.85,0,0,1-4.09-3.6v-.07a3.85,3.85,0,0,1,3.59-4.1h.08a3.85,3.85,0,0,1,4.09,3.59v.08A3.85,3.85,0,0,1,78.75,101.92Z"/></g></g></g></svg>