<svg xmlns="http://www.w3.org/2000/svg" viewBox="0 0 166 198.69"><defs><style>.cls-1{fill:#fff;}.cls-2{fill:#2c2665;}.cls-3{fill:#c7a22f;}.cls-4{fill:#ff3000;}.cls-5{fill:#231f20;}.cls-6{fill:#ffd228;}.cls-7{fill:#ffe128;}</style></defs><g id="Layer_2" data-name="Layer 2"><g id="Layer_1-2" data-name="Layer 1"><path class="cls-1" d="M0,83a83,83,0,0,1,166,0c0,45.84-59.07,115.69-83,115.69C58.67,198.69,0,128.84,0,83Z"/><path class="cls-2" d="M83,154.65a71.89,71.89,0,1,1,71.89-71.88A72,72,0,0,1,83,154.65Z"/><path class="cls-3" d="M83,13.38A69.39,69.39,0,1,1,13.62,82.77,69.47,69.47,0,0,1,83,13.38m0-5a74.39,74.39,0,1,0,74.39,74.39A74.38,74.38,0,0,0,83,8.38Z"/><path class="cls-4" d="M61.9,131.11a2.38,2.38,0,0,1-.79-.13C47.28,126.35,41,111.52,41,99.71c0-8.92,1.84-14.41,7-21,1.56-2,3.07-3.65,4.53-5.28C57.66,67.75,61,64,59.32,55.36a2.51,2.51,0,0,1,2.46-3,2.52,2.52,0,0,1,1.48.49A24.83,24.83,0,0,1,71.72,64.8c.67-9.72,2.91-20,20-25.13a2.27,2.27,0,0,1,.73-.11,2.49,2.49,0,0,1,2.2,3.67c-3.49,6.59-1.39,11.7,1.52,18.79.54,1.33,1.11,2.71,1.66,4.15A10.85,10.85,0,0,1,103,59a2.49,2.49,0,0,1,1.36-.41,2.43,2.43,0,0,1,1.39.43,2.51,2.51,0,0,1,1.07,2.54c-.54,2.85.86,5.15,3.81,9.68a84.38,84.38,0,0,1,5.11,8.63c4.79,9.49,4.42,18.26,3.31,26.33-1.1,7.86-6.63,17.82-12.87,23.17a2.5,2.5,0,0,1-1.62.6,2.5,2.5,0,0,1-1.88-4.15,23,23,0,0,0,4.59-7.41,21.9,21.9,0,0,0-3.43-19.26c-1.47,6.66-4.87,17-10.2,17h0a4.77,4.77,0,0,1-3.68-1.86,16,16,0,0,1-3.65-10.79,28.19,28.19,0,0,1,1.47-7c1.66-5.79,3.84-13.39.77-20.08a24.08,24.08,0,0,1-3.64,3.64,58.8,58.8,0,0,0-5.51,5.36C76.61,88.57,75,94.7,75,98.9c-.09,5.89-.16,10.15-3.41,11a6.22,6.22,0,0,1-1.63.23h0c-5.61,0-5.82-6.74-6-13.88-.09-2.71-.18-5.68-.55-8.39a26.7,26.7,0,0,0-5.15,5.21c-6.82,11-4.37,27,5.14,33.48a2.5,2.5,0,0,1-1.41,4.56Z"/><path class="cls-5" d="M92.4,42.06C83.62,58.59,105.66,68,96.21,96.74c12-17.69-2.84-28.49,8.13-35.61-1.14,6.07,4.25,10.2,9.15,19.9,4.33,8.58,4.2,16.59,3.06,24.87-1,6.83-5.85,16.32-12,21.61a24.8,24.8,0,0,0,5.11-8.33c3.59-11.61-2.94-22.05-7.49-25.2,0,4-4.23,19.75-8.53,19.75a2.38,2.38,0,0,1-1.79-1c-2.28-2.53-3-6.08-3-9.16,0-5.83,8.9-20.77-.56-32.25C86.85,76.62,83.64,77,77.52,83.8c-3.37,3.77-5,10.58-5.07,15.06-.08,4.87-.24,8.28-1.55,8.62a3.72,3.72,0,0,1-1,.15c-5.34,0-2.19-14.69-4.91-24.08-4,2.58-7.67,6.15-9,8.19-7.57,12.22-4.73,29.63,5.85,36.87C48.84,124.23,43.49,110,43.49,99.71c0-8.15,1.59-13.23,6.5-19.43,7.12-9,14.26-12.9,11.79-25.41,9.49,7,11.54,21.77,6.17,31.74,13.38-12-4.43-35.78,24.45-44.55m0-5a4.86,4.86,0,0,0-1.45.22C77.28,41.42,72.34,49,70.4,56.65a25.31,25.31,0,0,0-5.65-5.8,5,5,0,0,0-7.88,5c1.47,7.42-1.08,10.26-6.17,15.93-1.42,1.58-3,3.38-4.63,5.41-5.53,7-7.58,13.09-7.58,22.53,0,12.68,6.83,28.62,21.82,33.64a4.9,4.9,0,0,0,1.59.26,5,5,0,0,0,2.82-9.13c-8.48-5.8-10.59-20.15-4.42-30.11a9.37,9.37,0,0,1,1-1.19c0,1.06.08,2.12.11,3.15a51.85,51.85,0,0,0,.76,9c1.47,6.6,5.93,7.31,7.78,7.31a8.85,8.85,0,0,0,2.3-.32c5.05-1.33,5.14-7.18,5.24-13.37.07-3.79,1.51-9.25,3.8-11.81A55.91,55.91,0,0,1,86.54,82c.28-.24.56-.48.83-.73.77,4.89-.73,10.12-2,14.6a30,30,0,0,0-1.57,7.72,18.59,18.59,0,0,0,4.29,12.47,7.36,7.36,0,0,0,5.54,2.68c5.72,0,8.78-6.66,10.58-11.68.13-.35.25-.7.37-1a18.27,18.27,0,0,1,.29,11.7,19.69,19.69,0,0,1-4.08,6.5,5,5,0,0,0,7,7.1c6.76-5.79,12.52-16.18,13.71-24.71s1.55-17.71-3.54-27.81a90.14,90.14,0,0,0-5.25-8.86c-2.78-4.26-3.8-6-3.46-7.86A5,5,0,0,0,107.13,57a5.08,5.08,0,0,0-2.79-.85,5,5,0,0,0-2.72.81A15.93,15.93,0,0,0,98,60.06c-2.71-6.68-3.88-10.6-1.2-15.66a5,5,0,0,0-4.42-7.34Z"/><path class="cls-6" d="M109.64,119.18a24.8,24.8,0,0,1-5.11,8.33c.18-.81,2.17-5.81,2.41-6.75,1.81-6.88-1.07-13.52-4.63-17.46,0,4.57-7.38,16-12.21,10.42-2.29-2.53-3.81-7-4.32-10-.77-5.34.25-13.6,1-18.71C81.22,87.46,77,90.56,75.22,98.39c-1.58,7,1.19,10.1-1.77,12-5.07,3.3-12.5-4.52-10.19-12.69-8.87,9.1-8.41,20.48-1.36,30.87C51.32,121.37,48.48,104,56.05,91.74c1.28-2,5-5.61,9-8.19,2.87,9.92-.8,25.75,5.9,23.93,1.31-.34,1.47-3.75,1.55-8.62.09-4.48,1.7-11.29,5.07-15.06,6.12-6.84,9.33-7.18,10.71-12.47,9.46,11.48.56,26.42.56,32.25,0,3.08.76,6.63,3,9.16,4.83,5.6,10.32-14.19,10.32-18.76C106.7,97.13,113.23,107.57,109.64,119.18Z"/><path class="cls-7" d="M106.94,120.76c-.24.94-2.23,5.94-2.41,6.75a54.65,54.65,0,0,1-5.23,2.23c1.53-3.4,1.08-8.21-.86-10.75-.92,5.16-8.21,7-11.82,2.86-2.37-2.75-.55-11.93-4.57-13.87-4.09,7.62-13,8.08-15.32,13.93a10.33,10.33,0,0,0-.87,5.45,9.41,9.41,0,0,0,.43,2.57c-1.62-.47-3.08-.94-4.39-1.32-7-10.39-7.51-21.77,1.36-30.87-2.31,8.17,5.12,16,10.19,12.69,3-1.94.19-5.08,1.77-12,1.8-7.83,6-10.93,11.57-13.41-.76,5.11-1.78,13.37-1,18.71.51,3,2,7.5,4.32,10,4.83,5.6,12.21-5.85,12.21-10.42C105.87,107.24,108.75,113.88,106.94,120.76Z"/><path class="cls-1" d="M99.3,129.74l-1.08.38c-.36.13-.72.24-1.07.35-1.08.34-2.14.63-3.17.88l-1,.23c-.62.14-1.25.26-1.85.37q-.6.11-1.2.18c-.33.06-.66.1-1,.14-.83.11-1.64.19-2.45.25l-.87,0-.7,0-.8,0c-.91,0-1.79,0-2.67,0-.44,0-.9,0-1.32-.07q-1.53-.1-3-.27l-1-.14c-1.47-.21-2.88-.47-4.23-.76l-1-.22c-.65-.15-1.28-.32-1.9-.47l-.92-.24-1.75-.5a9.41,9.41,0,0,1-.43-2.57,10.33,10.33,0,0,1,.87-5.45C69,116.06,78,115.6,82.05,108c4,1.94,2.2,11.12,4.57,13.87,3.61,4.18,10.9,2.3,11.82-2.86C100.38,121.53,100.83,126.34,99.3,129.74Z"/></g></g></svg>