<svg xmlns="http://www.w3.org/2000/svg" viewBox="0 0 166 198.69"><defs><style>.cls-1{isolation:isolate;}.cls-14,.cls-16,.cls-2{fill:#fff;}.cls-3{fill:#ffe964;}.cls-4{fill:#57ead1;}.cls-4,.cls-5{stroke:#000;stroke-linejoin:round;stroke-width:5px;}.cls-5,.cls-7{fill:#af7133;}.cls-17,.cls-6{fill:#b65534;}.cls-8{fill:#760e00;}.cls-9{fill:#f00e24;}.cls-10{fill:#c70e24;}.cls-11{fill:#930e24;}.cls-11,.cls-12,.cls-15{mix-blend-mode:multiply;}.cls-12{fill:#b91522;}.cls-13{fill:#dbecd9;mix-blend-mode:hard-light;opacity:0.3;}.cls-14{mix-blend-mode:color-dodge;}.cls-14,.cls-16{opacity:0.7;}.cls-15{fill:#840e00;}.cls-16{mix-blend-mode:lighten;}.cls-17{mix-blend-mode:screen;}</style></defs><g class="cls-1"><g id="Layer_2" data-name="Layer 2"><g id="Layer_1-2" data-name="Layer 1"><path class="cls-2" d="M0,83a83,83,0,0,1,166,0c0,45.84-59.07,115.69-83,115.69C58.67,198.69,0,128.84,0,83Z"/><circle class="cls-3" cx="83" cy="83" r="74.55"/><rect class="cls-4" x="34.76" y="116.53" width="97.41" height="13.55"/><rect class="cls-5" x="40.68" y="96.05" width="85.58" height="11.4"/><rect class="cls-5" x="48.53" y="107.44" width="10.54" height="13.12"/><rect class="cls-5" x="68.31" y="107.44" width="10.54" height="13.12"/><rect class="cls-5" x="88.09" y="107.44" width="10.54" height="13.12"/><rect class="cls-5" x="107.87" y="107.44" width="10.54" height="13.12"/><rect class="cls-6" x="55.49" y="69.65" width="55.96" height="25.48" rx="2.5"/><path d="M109,72.15V92.63H58V72.15h51m0-5H58a5,5,0,0,0-5,5V92.63a5,5,0,0,0,5,5h51a5,5,0,0,0,5-5V72.15a5,5,0,0,0-5-5Z"/><rect class="cls-7" x="76.77" y="78.52" width="13.39" height="16.93" rx="2.5"/><path d="M87.66,81V93H79.27V81h8.39m0-5H79.27a5,5,0,0,0-5,5V93a5,5,0,0,0,5,5h8.39a5,5,0,0,0,5-5V81a5,5,0,0,0-5-5Z"/><path class="cls-6" d="M83.93,70.36,53.54,68.73a3.51,3.51,0,0,1-2.66-5.54L62.45,47.12V31.84a3.5,3.5,0,0,1,3.5-3.5h5.83a3.49,3.49,0,0,1,3.48,3.13l.57-.74a3.51,3.51,0,0,1,2.78-1.37H89.87a3.52,3.52,0,0,1,2.78,1.37L117.52,63.1a3.51,3.51,0,0,1-2.59,5.63L84.8,70.34a3.44,3.44,0,0,1-.46,0Z"/><path d="M71.78,31.84v9.9l6.83-8.88H89.87l24.88,32.37L84.34,66.86h-.2L53.73,65.23,66,48.24V31.84h5.83m0-7H66a7,7,0,0,0-7,7V46L48,61.14a7,7,0,0,0,5.31,11.08l30,1.61a6.45,6.45,0,0,0,.76,0h.2a6.79,6.79,0,0,0,.78,0l30-1.61A7,7,0,0,0,120.3,61L95.42,28.6a7,7,0,0,0-5.55-2.74H78.61a6.86,6.86,0,0,0-2.51.47,6.94,6.94,0,0,0-4.32-1.49Z"/><polygon class="cls-8" points="90.13 33.18 97.98 66.13 114.75 65.23 90.13 33.18"/><polygon class="cls-9" points="53.73 65.23 70.67 66.14 78.61 32.86 71.81 41.71 71.76 31.77 66.01 31.77 65.89 48.5 53.73 65.23"/><polygon class="cls-10" points="89.87 32.86 84.34 32.86 84.14 32.86 78.61 32.86 70.67 66.14 84.14 66.86 84.14 66.87 84.24 66.87 84.34 66.87 84.34 66.86 97.98 66.13 90.13 33.18 89.87 32.86"/><path class="cls-11" d="M56.77,61.54h55S78.65,62.8,56.77,61.54Z"/><path class="cls-11" d="M60.53,56.44h47.6S79.47,57.53,60.53,56.44Z"/><path class="cls-11" d="M65,51.42h38.68S80.38,52.3,65,51.42Z"/><path class="cls-11" d="M68.6,46.47h31.46S81.11,47.19,68.6,46.47Z"/><path class="cls-11" d="M72.53,41.6h23.6S81.92,42.14,72.53,41.6Z"/><path class="cls-11" d="M76.46,36.81H92.19S82.72,37.18,76.46,36.81Z"/><path class="cls-12" d="M68.62,59.89a.71.71,0,0,0,.72.49.91.91,0,0,0,.55-.49C70,59.53,68.16,59.29,68.62,59.89Z"/><path class="cls-12" d="M66.05,58.72a.45.45,0,0,0,.45.31.54.54,0,0,0,.33-.31C66.9,58.51,65.76,58.35,66.05,58.72Z"/><path class="cls-12" d="M67.8,57.72s.08.25.3.22a.39.39,0,0,0,.24-.22C68.38,57.58,67.59,57.47,67.8,57.72Z"/><path class="cls-12" d="M69.7,49a.34.34,0,0,0,.36.24.41.41,0,0,0,.27-.24C70.38,48.79,69.47,48.67,69.7,49Z"/><path class="cls-12" d="M68.41,48.38s.06.18.22.16c0,0,.14,0,.17-.16S68.27,48.19,68.41,48.38Z"/><path class="cls-12" d="M69.28,47.88s0,.13.16.11a.21.21,0,0,0,.11-.11C69.58,47.81,69.19,47.76,69.28,47.88Z"/><path class="cls-12" d="M77,45.16a.68.68,0,0,0,.68.47.87.87,0,0,0,.52-.47C78.32,44.82,76.58,44.59,77,45.16Z"/><path class="cls-12" d="M74.58,44.05a.42.42,0,0,0,.42.29s.26-.09.32-.29S74.31,43.7,74.58,44.05Z"/><path class="cls-12" d="M76.23,43.11s.08.23.29.2a.33.33,0,0,0,.22-.2C76.79,43,76.05,42.87,76.23,43.11Z"/><path class="cls-12" d="M77.45,60.11a.66.66,0,0,0,.68.46.9.9,0,0,0,.52-.46C78.74,59.77,77,59.54,77.45,60.11Z"/><path class="cls-12" d="M84.68,53.39s.14.4.51.35c0,0,.32-.1.39-.35S84.36,53,84.68,53.39Z"/><path class="cls-12" d="M90.63,48.21s.15.4.52.35a.65.65,0,0,0,.39-.35C91.61,48,90.3,47.78,90.63,48.21Z"/><path class="cls-12" d="M81.87,48.56s.14.4.51.36a.69.69,0,0,0,.4-.36C82.85,48.31,81.54,48.13,81.87,48.56Z"/><path class="cls-12" d="M89.76,44.85a.49.49,0,0,0,.51.34.66.66,0,0,0,.39-.34C90.73,44.59,89.43,44.42,89.76,44.85Z"/><path class="cls-12" d="M84.22,39.17s.14.4.51.35c0,0,.32-.1.39-.35S83.89,38.74,84.22,39.17Z"/><path class="cls-12" d="M75.36,39.26a.37.37,0,0,0,.38.26s.23-.08.28-.26S75.12,38.94,75.36,39.26Z"/><path class="cls-12" d="M87.18,35.05a.37.37,0,0,0,.38.26.47.47,0,0,0,.29-.26C87.9,34.87,86.94,34.73,87.18,35.05Z"/><path class="cls-12" d="M79.87,34.79a.37.37,0,0,0,.38.26.47.47,0,0,0,.29-.26C80.59,34.61,79.63,34.48,79.87,34.79Z"/><path class="cls-12" d="M87.8,59.11s.1.3.37.27a.5.5,0,0,0,.29-.27C88.51,58.93,87.55,58.81,87.8,59.11Z"/><path class="cls-12" d="M94.06,63.54a.52.52,0,0,0,.54.37.65.65,0,0,0,.41-.37C95.09,63.29,93.71,63.1,94.06,63.54Z"/><path class="cls-12" d="M100.92,63.84s.08.27.33.23a.44.44,0,0,0,.26-.23C101.56,63.67,100.7,63.56,100.92,63.84Z"/><path class="cls-12" d="M110.73,63.37s.13.38.48.33a.58.58,0,0,0,.37-.33C111.65,63.13,110.42,63,110.73,63.37Z"/><path class="cls-12" d="M106.91,60.43a.49.49,0,0,0,.48.33s.31-.1.38-.33S106.6,60,106.91,60.43Z"/><path class="cls-12" d="M96.85,53.2s.13.39.49.34a.6.6,0,0,0,.37-.34C97.78,53,96.53,52.81,96.85,53.2Z"/><path class="cls-12" d="M99.2,49.26s.09.26.33.23a.44.44,0,0,0,.26-.23C99.84,49.09,99,49,99.2,49.26Z"/><path class="cls-12" d="M94,43.16s.09.27.34.23a.43.43,0,0,0,.25-.23C94.64,43,93.78,42.89,94,43.16Z"/><path class="cls-12" d="M74.47,55.64a.42.42,0,0,0,.42.29.51.51,0,0,0,.32-.29C75.27,55.43,74.19,55.28,74.47,55.64Z"/><path class="cls-12" d="M76.12,54.7s.08.23.29.2a.4.4,0,0,0,.23-.2C76.68,54.56,75.93,54.47,76.12,54.7Z"/><path class="cls-12" d="M62.53,61.81a.71.71,0,0,0,.72.49.87.87,0,0,0,.54-.49C63.9,61.45,62.06,61.2,62.53,61.81Z"/><path class="cls-12" d="M60,60.64a.43.43,0,0,0,.45.3.51.51,0,0,0,.33-.3C60.81,60.43,59.67,60.26,60,60.64Z"/><path class="cls-12" d="M61.7,59.65a.29.29,0,0,0,.31.2s.19-.05.23-.2S61.5,59.39,61.7,59.65Z"/><path class="cls-12" d="M71.18,54.39s.14.38.49.33c0,0,.3-.09.36-.33S70.88,54,71.18,54.39Z"/><path class="cls-12" d="M69.47,53.61s.07.24.29.21a.4.4,0,0,0,.24-.21C70,53.48,69.28,53.37,69.47,53.61Z"/><path class="cls-12" d="M70.64,53a.18.18,0,0,0,.2.13A.3.3,0,0,0,71,53C71,52.86,70.5,52.78,70.64,53Z"/><polygon class="cls-13" points="78.14 33.39 71.76 41.75 65.89 48.39 53.8 65.26 66.29 65.11 55.05 64.64 57.74 61.35 69.52 61.42 58.49 60.57 61.09 57.01 70.61 56.38 61.63 56.3 65.24 51.82 72.16 51.33 65.75 51.25 68.85 47.05 73.54 46.49 69.22 46.28 72.24 42 75.56 41.58 72.87 41.47 75.86 37.54 77.23 36.81 76.27 36.74 78.14 33.39"/><path class="cls-14" d="M78.61,32.86,70.94,65.19S77.47,39.63,78.61,32.86Z"/><path class="cls-15" d="M114.75,65.23,89.87,32.86l.61,3.31-12.54.63,12.62.36.88,4.21-12.87.34,13,.56L92.19,46l-16.68.57,16.89.62.68,3.65-14.21.56,14.5.85L94,55.87l-19.62.64,19.75.2.67,3.5L78,61.54l17.15,1,.46,1.9-24.82.76ZM95.46,54.05l1.31-.35-1.51-.5L94,47.73l.46-.2-.63-.21L92.87,43l.42-.22-.76-.56L91.31,37l1.22.29,1.34,2-.42.63h.63L95,41.22l-1.92.49,2.3.42,3,3.65-4.4.77,4.61.28,1.88,2.73-3.56,1,4.11-.14.67.84-6,.21,6.8,1.26.46.84L99.2,55.24l4.32-.42,1.09,1.75h-8l8.68,1.26L106,59.1l-7.13.28,7.38.48,1,1.82-8.85.07L107.66,63l1.1,1.68-10.49.42-.91-3.37,1.21-.83-1.34.2Z"/><path class="cls-16" d="M89.87,32.86l7.9,32.19S91.11,36.13,89.87,32.86Z"/><polygon class="cls-13" points="66.01 31.77 70.5 32.92 70.63 37.65 68.12 36.56 70.67 38.37 70.8 42.84 71.76 41.75 71.76 31.77 66.01 31.77"/><polygon class="cls-17" points="108.92 92.62 104.76 92.62 104.76 72.79 108.92 72.57 108.92 92.62"/><rect class="cls-17" x="82.47" y="59.24" width="1.88" height="80.49" transform="translate(-16.08 182.89) rotate(-90)"/><polygon class="cls-17" points="86.04 81.03 86.03 81.03 79.28 81.03 79.28 82.64 86.03 82.64 86.03 92.85 87.64 92.85 87.64 81.03 86.04 81.03"/><rect class="cls-17" x="114.2" y="109.94" width="1.69" height="8.11"/><rect class="cls-17" x="94.38" y="109.94" width="1.69" height="8.11"/><rect class="cls-17" x="74.67" y="109.94" width="1.69" height="8.11"/><rect class="cls-17" x="54.86" y="109.94" width="1.69" height="8.11"/></g></g></g></svg>