<svg xmlns="http://www.w3.org/2000/svg" xmlns:xlink="http://www.w3.org/1999/xlink" viewBox="0 0 166 198.69"><defs><style>.cls-1{mask:url(#mask);filter:url(#luminosity-noclip-2);}.cls-2{mix-blend-mode:multiply;fill:url(#linear-gradient);}.cls-3{fill:#fff;}.cls-4{fill:#ffe964;}.cls-5{mask:url(#mask-2);}.cls-6{fill:url(#linear-gradient-2);}.cls-7{fill:#ffc200;}.cls-8{opacity:0.55;}.cls-12,.cls-13,.cls-14,.cls-9{stroke:#000;stroke-miterlimit:10;}.cls-9{stroke-width:2.86px;}.cls-10{fill:#4089ff;}.cls-11{opacity:0.3;}.cls-12{stroke-width:2.3px;}.cls-13{stroke-width:2px;}.cls-14{stroke-width:2.1px;}.cls-15{fill:#ffa329;}.cls-16{fill:#262f6a;}.cls-17{fill:#5dcbed;}.cls-18{filter:url(#luminosity-noclip);}</style><filter id="luminosity-noclip" x="32.52" y="-8640.95" width="99.58" height="32766" filterUnits="userSpaceOnUse" color-interpolation-filters="sRGB"><feFlood flood-color="#fff" result="bg"/><feBlend in="SourceGraphic" in2="bg"/></filter><mask id="mask" x="32.52" y="-8640.95" width="99.58" height="32766" maskUnits="userSpaceOnUse"><g class="cls-18"/></mask><linearGradient id="linear-gradient" x1="81.68" y1="18.64" x2="82.32" y2="63.09" gradientUnits="userSpaceOnUse"><stop offset="0" stop-color="#fff"/><stop offset="1"/></linearGradient><filter id="luminosity-noclip-2" x="32.52" y="27.38" width="99.58" height="35.67" filterUnits="userSpaceOnUse" color-interpolation-filters="sRGB"><feFlood flood-color="#fff" result="bg"/><feBlend in="SourceGraphic" in2="bg"/></filter><mask id="mask-2" x="32.52" y="27.38" width="99.58" height="35.67" maskUnits="userSpaceOnUse"><g class="cls-1"><polygon class="cls-2" points="54.41 27.38 32.52 63.06 132.11 63.06 111.63 27.38 54.41 27.38"/></g></mask><linearGradient id="linear-gradient-2" x1="80.48" y1="18.98" x2="81.11" y2="63.06" gradientUnits="userSpaceOnUse"><stop offset="0" stop-color="#fff"/><stop offset="1" stop-color="#dbe3ee"/></linearGradient></defs><g id="Layer_2" data-name="Layer 2"><g id="Layer_1-2" data-name="Layer 1"><path class="cls-3" d="M0,83a83,83,0,0,1,166,0c0,45.84-59.07,115.69-83,115.69C58.67,198.69,0,128.84,0,83Z"/><circle class="cls-4" cx="83" cy="83" r="74.55"/><g class="cls-5"><polygon class="cls-6" points="71.85 27.38 33.3 63.06 128.91 63.06 93.43 27.38 71.85 27.38"/></g><circle class="cls-7" cx="82.57" cy="33.63" r="4.87"/><g class="cls-8"><path class="cls-3" d="M83.56,38.4a5.36,5.36,0,0,1-1,.1,4.88,4.88,0,0,1,0-9.75,5.36,5.36,0,0,1,1,.1,4.88,4.88,0,0,0,0,9.55Z"/></g><path class="cls-9" d="M82.57,39.22a5.6,5.6,0,1,1,5.6-5.59A5.6,5.6,0,0,1,82.57,39.22Zm0-9.75a4.16,4.16,0,1,0,4.16,4.16A4.17,4.17,0,0,0,82.57,29.47Z"/><path class="cls-10" d="M97.64,30.7h-30a15,15,0,1,1,30,0Z"/><g class="cls-11"><path class="cls-12" d="M97.64,30.7H94.48a12.21,12.21,0,0,0-10.2-12.3,11.64,11.64,0,0,1,1.58-.11C92.36,18.29,97.64,23.85,97.64,30.7Z"/></g><path class="cls-13" d="M97.64,31.43H67.51a.73.73,0,0,1-.72-.73,15.79,15.79,0,0,1,31.57,0A.73.73,0,0,1,97.64,31.43ZM68.25,30H96.9a14.34,14.34,0,0,0-28.65,0Z"/><path class="cls-14" d="M82.57,16.36a1.76,1.76,0,0,0,.72-.08V9.47H81.85v6.81A1.8,1.8,0,0,0,82.57,16.36Z"/><path class="cls-3" d="M123.73,83.63a130.77,130.77,0,0,1-27.48.05c-3.31,4-7.43,1.21-4.86-4q-.37-2-.57-4A47.37,47.37,0,0,1,91.46,62c-2.87-5.57,1.94-8.43,5.34-3.38a237.22,237.22,0,0,1,26.4,0c3.41-5.09,8.11-1.84,5.12,3.82a35.68,35.68,0,0,1,.09,16.88C131.42,84.76,127.13,87.78,123.73,83.63Z"/><path class="cls-13" d="M127,85.72a4.59,4.59,0,0,1-3.37-1.92,131.46,131.46,0,0,1-27.34,0c-1.72,2-3.58,2.21-4.67,1.5s-1.8-2.84-.43-5.65c-.24-1.32-.43-2.66-.56-4A47.68,47.68,0,0,1,91.3,62c-1.52-3-.88-5.08.43-5.85s3.35-.33,5.15,2.29a236.73,236.73,0,0,1,26.24,0c1.73-2.53,3.73-2.93,5-2.2s2,3.08.41,6.2a35.86,35.86,0,0,1,.08,16.83c1.63,3,1.1,5.2-.17,6.06A2.43,2.43,0,0,1,127,85.72Zm-3.23-2.25,0,.06c1.64,2,3.38,2.2,4.38,1.53,1.15-.79,1.61-2.85,0-5.7l0,0v-.06a35.61,35.61,0,0,0-.08-16.8l0-.06,0-.06c1.57-3,1-5.1-.26-5.83s-3-.25-4.59,2.18l0,.08h-.09a234.44,234.44,0,0,0-26.38,0h-.09l0-.07C95,56.16,93,55.73,91.89,56.39s-1.73,2.69-.29,5.49l0,0v0A47.41,47.41,0,0,0,91,75.67c.14,1.34.33,2.69.57,4v0l0,0c-1.32,2.67-.81,4.58.29,5.29s2.7.44,4.31-1.49l.05-.07h.09a131,131,0,0,0,27.44,0Z"/><path class="cls-13" d="M127,86.35a5,5,0,0,1-3.63-1.89,132.14,132.14,0,0,1-26.83,0c-1.9,2.07-4,2.2-5.27,1.37s-2.16-3.2-.73-6.27a48.27,48.27,0,0,1,.07-17.53c-1.57-3.24-.76-5.59.77-6.49s3.8-.51,5.78,2.18a235.38,235.38,0,0,1,25.62,0c1.91-2.6,4.16-2.94,5.6-2.09s2.42,3.44.74,6.82a36.39,36.39,0,0,1,.09,16.67c1.68,3.23,1,5.66-.48,6.66A3.09,3.09,0,0,1,127,86.35Zm-3.3-3.51a.81.81,0,0,1,.61.29c1.38,1.69,2.77,1.92,3.53,1.4s1.22-2.38-.15-4.86a.78.78,0,0,1-.08-.56,35,35,0,0,0-.08-16.51.77.77,0,0,1,.06-.56c1.32-2.49,1-4.4,0-5-.86-.51-2.35-.09-3.75,2a.78.78,0,0,1-.7.35,233.19,233.19,0,0,0-26.31,0,.81.81,0,0,1-.7-.35c-1.45-2.16-3-2.59-3.93-2.08s-1.3,2.22,0,4.66a.83.83,0,0,1,.08.51,46.87,46.87,0,0,0-.08,17.47.76.76,0,0,1-.07.49c-1.14,2.31-.76,3.94.07,4.49s2.13.25,3.48-1.38a.82.82,0,0,1,.69-.28,130.48,130.48,0,0,0,27.31,0Z"/><g class="cls-11"><path class="cls-13" d="M125.77,85.28a5.73,5.73,0,0,1-2-1.65l-1.28.13a130.37,130.37,0,0,1-26.2-.08c-1.56,1.87-3.3,2.25-4.43,1.58s-1.79-2.81-.43-5.55q-.37-2-.57-4l.89-.33.38-.14a54.78,54.78,0,0,0,7.67,2c12,2.17,21.52-1.27,27.46-12.55A35.66,35.66,0,0,1,126.78,79C128.7,82.51,127.66,85,125.77,85.28Z"/></g><path class="cls-3" d="M66.45,83.63A130.67,130.67,0,0,1,39,83.68c-3.31,4-7.43,1.21-4.87-4-.25-1.34-.43-2.68-.57-4A47.37,47.37,0,0,1,34.19,62c-2.87-5.57,1.94-8.43,5.33-3.38a237.22,237.22,0,0,1,26.4,0c3.41-5.09,8.11-1.84,5.13,3.82a35.56,35.56,0,0,1,.08,16.88C74.15,84.76,69.86,87.78,66.45,83.63Z"/><path class="cls-13" d="M69.76,85.72a4.59,4.59,0,0,1-3.37-1.92,131.55,131.55,0,0,1-27.35,0c-1.71,2-3.57,2.21-4.67,1.5s-1.8-2.84-.42-5.65c-.24-1.32-.43-2.66-.56-4A47.68,47.68,0,0,1,34,62c-1.51-3-.87-5.08.44-5.85s3.35-.33,5.14,2.29a236.73,236.73,0,0,1,26.24,0c1.73-2.53,3.74-2.93,5-2.2s2,3.08.4,6.2a35.86,35.86,0,0,1,.09,16.83c1.63,3,1.09,5.2-.17,6.06A2.48,2.48,0,0,1,69.76,85.72Zm-3.24-2.25.06.06c1.63,2,3.37,2.2,4.37,1.53,1.16-.79,1.62-2.85,0-5.7l0,0v-.06a35.61,35.61,0,0,0-.09-16.8v-.06l0-.06c1.56-3,1-5.1-.26-5.83s-3-.25-4.59,2.18l0,.08h-.09a234.62,234.62,0,0,0-26.39,0h-.09l0-.07c-1.68-2.5-3.65-2.93-4.77-2.27s-1.73,2.69-.29,5.49l0,0v0a47.41,47.41,0,0,0-.64,13.69c.13,1.34.32,2.69.57,4v0l0,0c-1.33,2.67-.81,4.58.28,5.29s2.71.44,4.31-1.49l.06-.07H39a131.14,131.14,0,0,0,27.45,0Z"/><path class="cls-13" d="M69.76,86.35a5,5,0,0,1-3.63-1.89,132.15,132.15,0,0,1-26.83,0c-1.91,2.07-4,2.2-5.27,1.37s-2.16-3.2-.74-6.27a48.27,48.27,0,0,1,.08-17.53c-1.57-3.24-.77-5.59.77-6.49s3.8-.51,5.78,2.18a235.19,235.19,0,0,1,25.61,0c1.92-2.6,4.17-2.94,5.6-2.09s2.42,3.44.75,6.82A36.66,36.66,0,0,1,72,79.18c1.67,3.23,1,5.66-.49,6.66A3.08,3.08,0,0,1,69.76,86.35Zm-3.31-3.51a.79.79,0,0,1,.61.29c1.39,1.69,2.78,1.92,3.54,1.4s1.22-2.38-.16-4.86a.78.78,0,0,1-.07-.56,35,35,0,0,0-.09-16.51.83.83,0,0,1,.07-.56c1.31-2.49,1-4.4,0-5-.85-.51-2.34-.09-3.74,2a.78.78,0,0,1-.7.35,233.2,233.2,0,0,0-26.31,0,.8.8,0,0,1-.7-.35c-1.45-2.16-3.06-2.59-3.93-2.08s-1.31,2.22,0,4.66a.76.76,0,0,1,.07.51,46.87,46.87,0,0,0-.07,17.47.76.76,0,0,1-.07.49c-1.14,2.31-.77,3.94.07,4.49s2.12.25,3.48-1.38a.8.8,0,0,1,.68-.28,130.58,130.58,0,0,0,27.32,0Z"/><g class="cls-11"><path class="cls-13" d="M68.5,85.28a5.75,5.75,0,0,1-2-1.65l-1.28.13A130.27,130.27,0,0,1,39,83.68c-1.56,1.87-3.3,2.25-4.43,1.58s-1.79-2.81-.44-5.55c-.25-1.34-.43-2.68-.57-4l.89-.33.38-.14a54.55,54.55,0,0,0,7.68,2C54.51,79.39,64,76,70,64.67A35.49,35.49,0,0,1,69.5,79C71.43,82.51,70.38,85,68.5,85.28Z"/></g><rect class="cls-3" x="70.69" y="65.44" width="20.53" height="20.53" rx="4.17" transform="translate(-29.82 79.42) rotate(-45)"/><path class="cls-13" d="M81,88.65a4.34,4.34,0,0,1-3.06-1.27l-8.61-8.61a4.34,4.34,0,0,1,0-6.13L77.89,64A4.33,4.33,0,0,1,84,64l8.61,8.61a4.34,4.34,0,0,1,0,6.13L84,87.38A4.36,4.36,0,0,1,81,88.65Zm0-25.58a4,4,0,0,0-2.84,1.18L69.5,72.86a4,4,0,0,0,0,5.68l8.61,8.62a4,4,0,0,0,5.68,0l8.62-8.62a4,4,0,0,0,0-5.68l-8.62-8.61A4,4,0,0,0,81,63.07Z"/><path class="cls-13" d="M81,89.28a4.94,4.94,0,0,1-3.51-1.46l-8.61-8.61a5,5,0,0,1,0-7l8.62-8.61a5,5,0,0,1,7,0l8.61,8.61a5,5,0,0,1,0,7l-8.61,8.61A4.92,4.92,0,0,1,81,89.28ZM81,63.7a3.37,3.37,0,0,0-2.39,1L70,73.31a3.39,3.39,0,0,0,0,4.79l8.61,8.61a3.39,3.39,0,0,0,4.79,0L92,78.1a3.39,3.39,0,0,0,0-4.79L83.35,64.7A3.37,3.37,0,0,0,81,63.7Z"/><g class="cls-11"><path class="cls-13" d="M91.39,79.78l-5,5c-4.42-.45-8.63-.91-8.63-.91Q88.27,79.35,84,66.51l7.37,7.37A4.17,4.17,0,0,1,91.39,79.78Z"/></g><rect class="cls-15" x="14.68" y="97.85" width="136.11" height="12.6" rx="6.3"/><g class="cls-11"><path class="cls-13" d="M150.65,100.38v7.25a2.68,2.68,0,0,1-2.68,2.68H17.21a2.69,2.69,0,0,1-2.54-1.83,2.69,2.69,0,0,0,.57.06H146a2.68,2.68,0,0,0,2.68-2.68V98.61a2.66,2.66,0,0,0-.14-.85A2.7,2.7,0,0,1,150.65,100.38Z"/><path class="cls-16" d="M148,110.46H17.21a2.83,2.83,0,0,1-2.69-1.93l-.08-.26.26.06a3.5,3.5,0,0,0,.54,0H146a2.52,2.52,0,0,0,2.52-2.52V98.61a2.44,2.44,0,0,0-.13-.8l-.09-.26.27.06a2.85,2.85,0,0,1,2.24,2.77v7.25A2.84,2.84,0,0,1,148,110.46Zm-133-1.78a2.52,2.52,0,0,0,2.29,1.47H148a2.52,2.52,0,0,0,2.52-2.52v-7.25A2.54,2.54,0,0,0,148.77,98a3.18,3.18,0,0,1,.07.62v7.25A2.85,2.85,0,0,1,146,108.7H15.24Z"/></g><g class="cls-8"><path class="cls-3" d="M150.65,99.65a2.84,2.84,0,0,0-.88-.14H19a2.68,2.68,0,0,0-2.67,2.67v7.25a2.84,2.84,0,0,0,.14.88,2.68,2.68,0,0,1-1.8-2.53v-7.25a2.68,2.68,0,0,1,2.68-2.68H148.12A2.67,2.67,0,0,1,150.65,99.65Z"/></g><path class="cls-13" d="M148.12,111.24H17.36a3.47,3.47,0,0,1-3.47-3.46v-7.25a3.48,3.48,0,0,1,3.47-3.47H148.12a3.47,3.47,0,0,1,3.46,3.47v7.25A3.46,3.46,0,0,1,148.12,111.24ZM17.36,98.64a1.89,1.89,0,0,0-1.89,1.89v7.25a1.89,1.89,0,0,0,1.89,1.89H148.12a1.89,1.89,0,0,0,1.89-1.89v-7.25a1.89,1.89,0,0,0-1.89-1.89Z"/><path class="cls-15" d="M132.17,110.45H143.4a0,0,0,0,1,0,0v5.62a5.62,5.62,0,0,1-5.62,5.62h0a5.62,5.62,0,0,1-5.62-5.62v-5.62a0,0,0,0,1,0,0Z"/><path class="cls-13" d="M141.15,122.48h-6.73a3.05,3.05,0,0,1-3-3v-9.76h12.81v9.76A3,3,0,0,1,141.15,122.48ZM133,111.24v8.19a1.47,1.47,0,0,0,1.47,1.47h6.73a1.47,1.47,0,0,0,1.47-1.47v-8.19Z"/><path class="cls-15" d="M33.31,110.45v9a2.26,2.26,0,0,1-2.26,2.26H24.33a2.26,2.26,0,0,1-2.26-2.26v-9Z"/><path class="cls-13" d="M31.05,122.48H24.33a3,3,0,0,1-3-3v-9.76H34.1v9.76A3.06,3.06,0,0,1,31.05,122.48Zm-8.19-11.24v8.19a1.47,1.47,0,0,0,1.47,1.47h6.72a1.47,1.47,0,0,0,1.47-1.47v-8.19Z"/><path class="cls-3" d="M107.16,97.85H18.36V86.77A5.74,5.74,0,0,1,24.11,81h27.8l0,.08c1.83,3.15,3.66,6.91,5.49,9.65a5.5,5.5,0,0,0,1.86,2c1.34.67,3,.12,4.23-.69s2.43-2,3.74-2.82a5.8,5.8,0,0,1,4.43-1.08c2,.49,3.17,2.38,4.71,3.68a9.09,9.09,0,0,0,6.28,2.11c3.68-.2,7-2.64,10.72-2.51A14.73,14.73,0,0,1,101,94.22,48.16,48.16,0,0,0,107.16,97.85Z"/><path class="cls-13" d="M107.84,98H18.2V86.77a5.92,5.92,0,0,1,5.91-5.91H52l.09.15c.68,1.18,1.38,2.46,2,3.69,1.13,2.09,2.3,4.25,3.45,6a5.31,5.31,0,0,0,1.8,1.91c1.53.77,3.35-.22,4.07-.69a20,20,0,0,0,1.88-1.41c.6-.48,1.21-1,1.87-1.41A6,6,0,0,1,71.74,88a7.69,7.69,0,0,1,3.47,2.46c.42.43.85.87,1.3,1.25a8.89,8.89,0,0,0,6.17,2.07,18.33,18.33,0,0,0,5-1.24,15.79,15.79,0,0,1,5.77-1.26,14.71,14.71,0,0,1,7.66,2.83,47.61,47.61,0,0,0,6.16,3.62Zm-89.32-.32h88a49,49,0,0,1-5.6-3.34,14.39,14.39,0,0,0-7.49-2.78,15.79,15.79,0,0,0-5.66,1.24,18.29,18.29,0,0,1-5,1.27,9.24,9.24,0,0,1-6.39-2.15c-.46-.39-.9-.84-1.32-1.27a7.4,7.4,0,0,0-3.33-2.37,5.67,5.67,0,0,0-4.3,1,22.74,22.74,0,0,0-1.84,1.39c-.61.49-1.24,1-1.91,1.43s-2.71,1.54-4.38.7a5.68,5.68,0,0,1-1.92-2c-1.16-1.73-2.33-3.9-3.46-6-.67-1.23-1.36-2.5-2-3.67H24.11a5.59,5.59,0,0,0-5.59,5.59Z"/><path class="cls-17" d="M146.09,86.77V97.85c-3.75,5.6-22.23,8.21-38.93,0A48.16,48.16,0,0,1,101,94.22a14.73,14.73,0,0,0-7.57-2.81c-3.69-.13-7,2.31-10.72,2.51a9.09,9.09,0,0,1-6.28-2.11c-1.54-1.3-2.75-3.19-4.71-3.68a5.8,5.8,0,0,0-4.43,1.08c-1.31.85-2.43,2-3.74,2.82s-2.89,1.36-4.23.69a5.5,5.5,0,0,1-1.86-2C55.59,88,53.75,84.19,51.91,81h88.43A5.74,5.74,0,0,1,146.09,86.77Z"/><path class="cls-13" d="M129.48,103.25A51.42,51.42,0,0,1,107.09,98a48.21,48.21,0,0,1-6.2-3.64,14.39,14.39,0,0,0-7.49-2.78,15.79,15.79,0,0,0-5.66,1.24,18.29,18.29,0,0,1-5,1.27,9.24,9.24,0,0,1-6.39-2.15c-.46-.39-.9-.84-1.32-1.27a7.4,7.4,0,0,0-3.33-2.37,5.67,5.67,0,0,0-4.3,1,22.74,22.74,0,0,0-1.84,1.39c-.61.49-1.24,1-1.91,1.43s-2.71,1.54-4.38.7a5.68,5.68,0,0,1-1.92-2c-1.16-1.73-2.33-3.89-3.46-6-.68-1.26-1.39-2.56-2.08-3.75l-.14-.24h88.71a5.92,5.92,0,0,1,5.91,5.91V97.9l0,0C144.14,101.06,137.66,103.25,129.48,103.25Zm-36.37-12h.3a14.71,14.71,0,0,1,7.66,2.83,47.61,47.61,0,0,0,6.16,3.62,50.66,50.66,0,0,0,24.24,5.16c6.91-.31,12.57-2.3,14.47-5.07v-11a5.6,5.6,0,0,0-5.6-5.59H52.18c.65,1.13,1.31,2.35,2,3.52,1.12,2.09,2.29,4.25,3.44,6a5.31,5.31,0,0,0,1.8,1.91c1.53.77,3.35-.22,4.07-.69a20,20,0,0,0,1.88-1.41c.6-.48,1.21-1,1.87-1.41A6,6,0,0,1,71.74,88a7.69,7.69,0,0,1,3.47,2.46c.42.43.85.87,1.3,1.25a8.89,8.89,0,0,0,6.17,2.07,18.33,18.33,0,0,0,5-1.24A16.47,16.47,0,0,1,93.11,91.25Z"/><g class="cls-11"><path class="cls-13" d="M107.16,97.85h-5.59c-.2-.13-.4-.26-.59-.4a14.73,14.73,0,0,0-7.58-2.81c-3.68-.13-7,2.31-10.71,2.51A9.09,9.09,0,0,1,76.41,95c-1.54-1.3-2.76-3.19-4.71-3.68a5.8,5.8,0,0,0-4.43,1.08c-1.31.85-2.43,2-3.74,2.82s-2.9,1.36-4.23.69a5.42,5.42,0,0,1-1.86-2c-1.85-2.76-5.78-9.79-7.63-13L52,81.1c1.83,3.15,3.66,6.91,5.49,9.65a5.5,5.5,0,0,0,1.86,2c1.34.67,3,.12,4.23-.69s2.43-2,3.74-2.82a5.8,5.8,0,0,1,4.43-1.08c2,.49,3.17,2.38,4.71,3.68a9.09,9.09,0,0,0,6.28,2.11c3.68-.2,7-2.64,10.72-2.51A14.73,14.73,0,0,1,101,94.22,48.16,48.16,0,0,0,107.16,97.85Z"/></g><g class="cls-11"><path class="cls-13" d="M146.09,95.24v2.61c-3.75,5.6-22.23,8.21-38.93,0A48.16,48.16,0,0,1,101,94.22a14.73,14.73,0,0,0-7.57-2.81c-3.69-.13-7,2.31-10.72,2.51a9.09,9.09,0,0,1-6.28-2.11c-1.54-1.3-2.75-3.19-4.71-3.68a5.8,5.8,0,0,0-4.43,1.08c-1.31.85-2.43,2-3.74,2.82s-2.89,1.36-4.23.69a5.5,5.5,0,0,1-1.86-2C55.59,88,53.75,84.19,51.91,81h1.45c1.36,2.49,2.72,5.09,4.08,7.12a5.39,5.39,0,0,0,1.86,2c1.34.68,3,.12,4.23-.69s2.43-2,3.74-2.82a5.79,5.79,0,0,1,4.43-1.07c2,.49,3.17,2.38,4.71,3.68a9.09,9.09,0,0,0,6.28,2.11c3.68-.2,7-2.65,10.72-2.51A14.73,14.73,0,0,1,101,91.61a48.16,48.16,0,0,0,6.18,3.63C123.86,103.45,142.34,100.84,146.09,95.24Z"/></g><g class="cls-8"><path class="cls-3" d="M146.09,86.59a5.77,5.77,0,0,0-5.23-3.35H53.15c-.41-.76-.83-1.5-1.24-2.22h88.43A5.75,5.75,0,0,1,146.09,86.59Z"/></g><path class="cls-13" d="M110.54,98.64h-93V86.77a6.55,6.55,0,0,1,6.54-6.54H52.36l.23.39c.7,1.21,1.4,2.52,2.09,3.79,1.12,2.07,2.28,4.21,3.41,5.91A4.83,4.83,0,0,0,59.66,92c1.23.63,2.81-.24,3.44-.65A18.83,18.83,0,0,0,64.92,90a23.43,23.43,0,0,1,1.92-1.44,6.57,6.57,0,0,1,5-1.18A8.24,8.24,0,0,1,75.66,90c.43.44.83.85,1.26,1.21a8.3,8.3,0,0,0,5.73,1.92,17.14,17.14,0,0,0,4.78-1.21,16.35,16.35,0,0,1,6-1.29,15.44,15.44,0,0,1,8,2.94,45.28,45.28,0,0,0,6.08,3.57ZM19.15,97.06H104c-1.2-.68-2.36-1.42-3.48-2.19a13.8,13.8,0,0,0-7.15-2.67A14.78,14.78,0,0,0,88,93.41a18.77,18.77,0,0,1-5.22,1.3,9.91,9.91,0,0,1-6.83-2.3c-.48-.41-.93-.87-1.36-1.31a7,7,0,0,0-3-2.2,5,5,0,0,0-3.81,1c-.61.4-1.18.86-1.79,1.35a22.75,22.75,0,0,1-2,1.47c-1.8,1.16-3.62,1.43-5,.73a6.14,6.14,0,0,1-2.17-2.23c-1.17-1.75-2.35-3.93-3.49-6-.6-1.11-1.22-2.27-1.84-3.34H24.11a5,5,0,0,0-5,5Z"/><path class="cls-13" d="M129.41,103.86a52,52,0,0,1-22.6-5.3,49.47,49.47,0,0,1-6.28-3.69,13.8,13.8,0,0,0-7.15-2.67A14.78,14.78,0,0,0,88,93.41a18.77,18.77,0,0,1-5.22,1.3,9.91,9.91,0,0,1-6.83-2.3c-.48-.41-.93-.87-1.36-1.31a7,7,0,0,0-3-2.2,5,5,0,0,0-3.81,1c-.61.4-1.18.86-1.79,1.35a22.75,22.75,0,0,1-2,1.47c-1.8,1.16-3.62,1.43-5,.73a6.14,6.14,0,0,1-2.17-2.23c-1.17-1.75-2.35-3.93-3.49-6-.68-1.25-1.38-2.55-2.07-3.73l-.68-1.19h89.8a6.55,6.55,0,0,1,6.54,6.54V98.09l-.13.2c-2.06,3.08-7.9,5.19-15.23,5.53C130.82,103.85,130.12,103.86,129.41,103.86ZM93.1,90.62h.34a15.44,15.44,0,0,1,8,2.94,45.28,45.28,0,0,0,6.08,3.57,49.89,49.89,0,0,0,23.94,5.1c6.57-.3,12-2.11,13.86-4.64V86.77a5,5,0,0,0-5-5H53.26c.48.85,1,1.73,1.42,2.6,1.12,2.07,2.28,4.21,3.41,5.91A4.83,4.83,0,0,0,59.66,92c1.23.63,2.81-.24,3.44-.65A18.83,18.83,0,0,0,64.92,90a23.43,23.43,0,0,1,1.92-1.44,6.57,6.57,0,0,1,5-1.18A8.24,8.24,0,0,1,75.66,90c.43.44.83.85,1.26,1.21a8.3,8.3,0,0,0,5.73,1.92,17.14,17.14,0,0,0,4.78-1.21A17.11,17.11,0,0,1,93.1,90.62Z"/><g class="cls-11"><rect class="cls-13" x="22.07" y="110.45" width="11.24" height="5.62"/><path class="cls-16" d="M33.47,116.23H21.92V110.3H33.47Zm-11.24-.32H33.15v-5.3H22.23Z"/></g><g class="cls-11"><rect class="cls-13" x="132.17" y="110.45" width="11.24" height="5.62"/><path class="cls-16" d="M143.56,116.23H132V110.3h11.55Zm-11.24-.32h10.93v-5.3H132.32Z"/></g></g></g></svg>