<svg xmlns="http://www.w3.org/2000/svg" viewBox="0 0 166 198.69"><defs><style>.cls-1{fill:#fff;}.cls-2{fill:#005530;}.cls-3{fill:#c7a22f;}.cls-4{fill:#a3a2a2;}</style></defs><g id="Layer_2" data-name="Layer 2"><g id="Layer_1-2" data-name="Layer 1"><path class="cls-1" d="M0,83a83,83,0,0,1,166,0c0,45.84-59.07,115.69-83,115.69C58.67,198.69,0,128.84,0,83Z"/><path class="cls-2" d="M83,154.65a71.89,71.89,0,1,1,71.89-71.88A72,72,0,0,1,83,154.65Z"/><path class="cls-3" d="M83,13.38A69.39,69.39,0,1,1,13.62,82.77,69.47,69.47,0,0,1,83,13.38m0-5a74.39,74.39,0,1,0,74.39,74.39A74.38,74.38,0,0,0,83,8.38Z"/><path class="cls-1" d="M60.75,114.72a2.5,2.5,0,0,1-2.46-2.92l4-23.48L45.25,71.69a2.5,2.5,0,0,1,1.39-4.26L70.22,64,80.76,42.64a2.5,2.5,0,0,1,4.48,0L95.78,64l23.58,3.43a2.5,2.5,0,0,1,1.39,4.26L103.69,88.32l4,23.48a2.5,2.5,0,0,1-3.62,2.64L83,103.35,61.91,114.44A2.48,2.48,0,0,1,60.75,114.72Z"/><path d="M83,43.75l4,8,7.17,14.54,6.89,1,18,2.61-.44.43L101,87.45l3.83,22.33.42,2.44-17.22-9-5-2.64-14.1,7.41-8.15,4.28L65,87.45,47,69.9l24.88-3.61L83,43.75m0-5h0a5,5,0,0,0-4.48,2.78l-10,20.19L46.28,65a5,5,0,0,0-2.77,8.53L59.63,89.19l-3.81,22.19a5,5,0,0,0,7.26,5.27l8.14-4.28L83,106.17l2.7,1.43,17.22,9.05a5,5,0,0,0,7.26-5.27l-.42-2.45-3.39-19.74,15.68-15.28.44-.43A5,5,0,0,0,119.72,65l-18-2.61-4.29-.62-6-12.18-4-8A5,5,0,0,0,83,38.75Z"/><polygon class="cls-1" points="105.25 112.22 88.03 103.17 83 100.52 83.33 82.77 105.18 111.8 105.18 111.81 105.25 112.22"/><polygon class="cls-1" points="94.12 66.28 83.33 82.77 83.33 44.41 86.95 51.75 94.12 66.28"/><polygon class="cls-1" points="83.33 82.77 47.23 70.13 47 69.9 71.87 66.28 83.33 82.77"/><polygon class="cls-1" points="83.33 82.77 60.89 112.15 60.88 112.15 60.75 112.22 65 87.45 83.33 82.77"/><polygon class="cls-1" points="119 69.9 118.56 70.33 101 87.45 83.33 82.77 119 69.9"/><polygon class="cls-4" points="83.33 44.41 83.33 82.77 71.87 66.28 83 43.74 83.33 44.41"/><polygon class="cls-4" points="119 69.9 83.33 82.77 94.12 66.28 101.01 67.29 119 69.9"/><polygon class="cls-4" points="83.33 82.77 65 87.45 47.23 70.13 83.33 82.77"/><polygon class="cls-4" points="83.33 82.77 83 100.52 68.89 107.94 60.89 112.15 83.33 82.77"/><polygon class="cls-4" points="105.18 111.8 83.33 82.77 101 87.45 104.83 109.77 105.18 111.8"/></g></g></svg>