<svg xmlns="http://www.w3.org/2000/svg" viewBox="0 0 166 198.69"><defs><style>.cls-1{fill:#fff;}.cls-2{fill:#64deff;}.cls-3{fill:#e20000;}.cls-4{fill:#9b0000;}.cls-5{fill:#021bce;}.cls-6{fill:#f9d835;}.cls-7{fill:#d88619;}.cls-8{fill:#0f2384;}</style></defs><g id="Layer_2" data-name="Layer 2"><g id="Layer_1-2" data-name="Layer 1"><path class="cls-1" d="M0,83a83,83,0,0,1,166,0c0,45.84-59.07,115.69-83,115.69C58.67,198.69,0,128.84,0,83Z"/><circle class="cls-2" cx="83" cy="83" r="74.55"/><path class="cls-3" d="M51.4,134.19a9.82,9.82,0,0,1-.17-19.63V44.23a9.7,9.7,0,0,1,9.69-9.68h43.31a9.69,9.69,0,0,1,9.68,9.68V55.58l16.14,4a1.82,1.82,0,0,1,1.38,1.76v3.21a1.83,1.83,0,0,1-1.68,1.82l-1,.08v1c.75,1.43,2.43,5.63,2.17,14.2-.28,9-.62,20.17-12.8,20.17h-.21a16.64,16.64,0,0,1-4-.5v13.21h.66a9.82,9.82,0,0,1,0,19.64ZM113.91,93a5.31,5.31,0,0,0,3.9,1.34c2.26,0,6,0,6-12.67,0-3.39-.1-8.11-.94-9.86-.24-.51-.3-.63-1.89-.63a3.51,3.51,0,0,1-2.78-1.3c-1.23-1.53-1.24-4-1-5.84l-3.29-.76ZM62.85,47.83a.25.25,0,0,0-.25.24V71a.25.25,0,0,0,.25.25h40a.25.25,0,0,0,.25-.25V48.07a.25.25,0,0,0-.25-.24Z"/><path d="M104.23,36.37a7.86,7.86,0,0,1,7.86,7.86V57l17.52,4.33v3.21l-2.69.21V68s2.48,3.62,2.17,13.66-1,18.41-11,18.41h-.19a13.44,13.44,0,0,1-5.83-1.28v17.63h2.48a8,8,0,0,1,0,16H51.4a8,8,0,0,1,0-16h1.65V44.23a7.86,7.86,0,0,1,7.87-7.86h43.31M62.85,73h40A2.07,2.07,0,0,0,104.92,71V48.07A2.07,2.07,0,0,0,102.85,46h-40a2.06,2.06,0,0,0-2.07,2.06V71A2.07,2.07,0,0,0,62.85,73m55,23.16c4.55,0,7.86-2.49,7.86-14.49S124.23,69.4,121,69.4s-1.76-6.72-1.76-6.72L112.09,61V93.72a6.8,6.8,0,0,0,5.72,2.48M104.23,32.73H60.92a11.52,11.52,0,0,0-11.51,11.5V112.9a11.64,11.64,0,0,0,2,23.11h63.17a11.64,11.64,0,0,0,1.16-23.22v-9.26a19,19,0,0,0,2.16.13h.22c13.94,0,14.35-13.2,14.62-21.93.22-7.17-.88-11.49-1.79-13.8a3.64,3.64,0,0,0,2.31-3.39V61.33a3.64,3.64,0,0,0-2.77-3.53l-14.75-3.65V44.23a11.51,11.51,0,0,0-11.5-11.5ZM64.42,49.65h36.86V69.4H64.42V49.65Zm51.31,42.48V69a6.22,6.22,0,0,0,1.1,2.1A5.27,5.27,0,0,0,121,73h.41c.26.86.6,3.07.6,8.66,0,6-.88,8.62-1.62,9.75-.4.6-.87,1.1-2.6,1.1a4.46,4.46,0,0,1-2.08-.43Z"/><path class="cls-4" d="M60.78,48.07V71A2.07,2.07,0,0,0,62.85,73H69c.65,5.32,2.24,11.5,4.2,19,4,15.16,10.49,30.83,8.74,40.34H51.4a8,8,0,0,1,0-16h1.65V44.23a7.86,7.86,0,0,1,7.87-7.86H94.53C92.7,38,89.15,41,82.83,46h-20A2.06,2.06,0,0,0,60.78,48.07Z"/><path class="cls-5" d="M98.76,90a5.85,5.85,0,1,1,5.85-5.85A5.86,5.86,0,0,1,98.76,90Z"/><path d="M98.76,79.26a4.86,4.86,0,1,1-4.85,4.86,4.86,4.86,0,0,1,4.85-4.86m0-2a6.86,6.86,0,1,0,6.85,6.86,6.86,6.86,0,0,0-6.85-6.86Z"/><path class="cls-6" d="M86.25,90a5.85,5.85,0,1,1,5.85-5.85A5.86,5.86,0,0,1,86.25,90Z"/><path d="M86.25,79.26a4.86,4.86,0,1,1-4.85,4.86,4.86,4.86,0,0,1,4.85-4.86m0-2a6.86,6.86,0,1,0,6.85,6.86,6.86,6.86,0,0,0-6.85-6.86Z"/><path class="cls-7" d="M86.92,80.44a4.34,4.34,0,0,1,2.68.94,4.34,4.34,0,1,0-6.09,6.08,4.33,4.33,0,0,1,3.41-7Z"/><path class="cls-8" d="M99.45,80.44a4.32,4.32,0,0,1,2.68.94,4.33,4.33,0,1,0-6.08,6.08,4.26,4.26,0,0,1-1-2.67A4.35,4.35,0,0,1,99.45,80.44Z"/></g></g></svg>