<svg xmlns="http://www.w3.org/2000/svg" viewBox="0 0 166 198.69"><defs><style>.cls-1{fill:#fff;}.cls-2{fill:#0d61a0;}.cls-3{fill:red;}.cls-4{fill:#e5e5e5;}.cls-5{fill:#005530;}</style></defs><g id="Layer_2" data-name="Layer 2"><g id="Layer_1-2" data-name="Layer 1"><path class="cls-1" d="M0,83a83,83,0,0,1,166,0c0,45.84-59.07,115.69-83,115.69C58.67,198.69,0,128.84,0,83Z"/><path class="cls-2" d="M83,8.38h0V157.15h0A74.38,74.38,0,0,1,8.62,82.77h0A74.38,74.38,0,0,1,83,8.38Z"/><path class="cls-3" d="M83,8.38h0a74.39,74.39,0,0,1,74.39,74.39h0A74.39,74.39,0,0,1,83,157.15h0Z"/><path class="cls-4" d="M150.35,82.77A67.35,67.35,0,1,1,83,15.42,67.35,67.35,0,0,1,150.35,82.77Z"/><path class="cls-5" d="M116.56,59.61c-.37-1.39-2-.09-2-.09s.37-3.15-3.89-3.43c0,0,2.87-5.36-2.78-6.66s-7,.37-7,.37-3,2.22.56-1.94c.55-1.11,1.66-.56,2.22-.28s1.48,1.76,3.33.09c1.11-.65.09,1.39,2.31,1.2s2.59-.92,4.82-1.66.92-2.78.92-2.78,1.67-2.22-.09-6.2c-.56-1.2-2.87-.93-2.87-.93s.93-1.94-4.44-.92c-3.34.09-3.61-.56-3.61-.56s-.1-5.64-3.89-5.55-3.43,2.59-4.81,1.48-4.45.46-4.35,3c0,0-3.15-2.22-4.72.56,0,0-.1-2.78-2-2.87s-1.94-.65-1.94-1.48c0-.65-2.78-1.11-3.15,0s-1.66.55-2,.09-2.59-1.2-3.05,3.15a2.34,2.34,0,0,1-1.94,1.76s1.76-3.71-.93-5.37-4.26.37-4.26.37-.64,1.2-1.48-.28c-.65-1.48-3.7-.28-3.61,1.48,0,0-6.94.56-5.55,7.78.92,3.42-.37,2-.37,2s-3.33,1.21-.28,3.15L58,46c.09,0,1.2,1.2.27,2s-2.31,1.67-6.38,2.59C48,51.56,49,54,49.36,54.52s.65.93-.1,1.94c-1.2,1.3-2.22,8.7,4.08,8.24,0,0,1.11,3.89,4.25,2.78a17.23,17.23,0,0,1,2.87.55s2.1.26,5.08-2.72l1.4,1.19s7,3.42,8.7,4.53,3.34,3.61,3.43,4.81,0,5.1,0,5.1-.56,3.14-2.32,3.61S72.59,87,72.87,89l16.66.46a7.44,7.44,0,0,1-4.44-6.2c-.38-4.72-.56-8.7,3.88-12.13C91.74,69,94,67.7,95.34,66.85c2.19.9,6.25.25,7-1.5,0,0,2.59,5.65,8.61,2a10.4,10.4,0,0,0,4.44-5.56S117,61.74,116.56,59.61ZM66.94,65.2l-.74-.59c.2-.23.41-.47.62-.73l.12.12.56.83S68.05,66,66.94,65.2ZM71,63.81c-.37,1.39-.28,2-1.76,1.11a5.78,5.78,0,0,1-1.83-1.86,7.2,7.2,0,0,1,3.19-2.73l0,.06A6.09,6.09,0,0,1,71,63.81Zm.55-3.15c0-.17,0-.37,0-.57a3.42,3.42,0,0,1,.69,0v.71S71.66,62,71.57,60.66Zm2,5.84s-1.67-.37-1.21-1.48A26.85,26.85,0,0,0,73,62L73,60.18a4.23,4.23,0,0,1,1.68.78,4.84,4.84,0,0,1-.08.72l.09,4.26S75.27,67.7,73.52,66.5Zm2.31-4.17v-.41c.25.25.53.51.85.78l-.3.74S75.74,64.37,75.83,62.33Zm4.44,7.41s-.28.83-1.66,0a7.63,7.63,0,0,1-2-1.39l.87-5a8.46,8.46,0,0,0,4.13,1.71v2.15ZM83.09,65l.24,0,.36-.08a10,10,0,0,1-.55.95ZM87,68.53l-1.11,1.39-1.11,1.2s-.93.28-.84-1.48A31.63,31.63,0,0,1,84.81,66l.88-1.76a3.16,3.16,0,0,1,1.71-.38V64A32.49,32.49,0,0,1,87,68.53Zm1.66-2.22c0-.68.06-1.24.09-1.72,1.39.64,3.58.29,5.11,1.26L90.36,67.7S88.42,69.18,88.69,66.31Z"/><path class="cls-5" d="M61.45,91a14,14,0,0,1,11.18,5,14.34,14.34,0,0,1,11.52-5.24,15.59,15.59,0,0,1,10.94,4.65s4.31-5,10.6-4.88a17,17,0,0,1,9.78,3.14c2.91-3.49,9.54-3.26,9.54-3.26,12.92,0,14,13,14,13h-9.55V99.82s-1.39-4.54-4.3-4.54c-4.54-.12-4.89,6-4.89,6v5.24h5.24V115h-4.66v11.29H111V111.81c0-2.1-1.74-4.89-4.31-5-3.14.35-3.84,3.26-4,5.36A3.17,3.17,0,0,0,105,115H89.16v-14.9S89,95.86,85,95.74c-3.85,0-4.66,5-4.66,5v14.67H70.88v-2.8s-3.14,3.15-9.55,3.26-10.94-5-10.94-5c-3.49,4.19-8.5,6.75-16,4.54s-10.47-9.9-8-15.14A14.53,14.53,0,0,1,40.5,91.2a13.28,13.28,0,0,1,10.13,5A14.21,14.21,0,0,1,61.45,91m-.35,4.66c-2.56,0-4.89,3.84-4.89,8.5s2.1,8.49,4.89,8.49c2.56,0,4.89-3.84,4.89-8.49s-2.09-8.5-4.89-8.5m-13.73,6.05h-4.2s-.46-6.63-4.3-6.63-4.66,5.58-4.89,7.8.11,9.19,4.31,9.19c5.35,0,5-6.63,5-6.63h4.19l-.11-3.73Zm54.48-.81H97.54v4.89s3.84-2.91,8.15-2.8c0,0,4.3-.11,5.7.47,0,0,0-8-5.24-8.15-4-.12-4.3,5.59-4.3,5.59"/></g></g></svg>