<svg xmlns="http://www.w3.org/2000/svg" viewBox="0 0 166 198.69"><defs><style>.cls-1{fill:#fff;}.cls-2{fill:#91ce6e;}.cls-3{fill:#ce8d0b;}.cls-4{fill:#b04625;}.cls-5,.cls-6{fill:none;stroke:#000;stroke-width:3.67px;}.cls-5{stroke-linejoin:round;}.cls-6{stroke-miterlimit:10;}</style></defs><g id="Layer_2" data-name="Layer 2"><g id="Layer_1-2" data-name="Layer 1"><path class="cls-1" d="M0,83a83,83,0,0,1,166,0c0,45.84-59.07,115.69-83,115.69C58.67,198.69,0,128.84,0,83Z"/><circle class="cls-2" cx="83" cy="83" r="74.55"/><rect class="cls-3" x="33.14" y="44.95" width="96.51" height="11" rx="4.17"/><path class="cls-4" d="M35.89,55.88V52.52a3.82,3.82,0,0,1,3.82-3.82h88.87a4.1,4.1,0,0,1,.94.13A3.81,3.81,0,0,0,125.83,46H37a3.82,3.82,0,0,0-3.82,3.82v3.36A3.82,3.82,0,0,0,36,56.82,3.62,3.62,0,0,1,35.89,55.88Z"/><rect class="cls-5" x="33.14" y="43.96" width="96.51" height="11" rx="4.17"/><rect class="cls-3" x="33.14" y="55.8" width="96.51" height="11" rx="4.17"/><path class="cls-4" d="M35.89,67.27V63.91a3.82,3.82,0,0,1,3.82-3.82h88.87a3.62,3.62,0,0,1,.94.13,3.81,3.81,0,0,0-3.69-2.88H37a3.82,3.82,0,0,0-3.82,3.82v3.36A3.82,3.82,0,0,0,36,68.21,3.68,3.68,0,0,1,35.89,67.27Z"/><rect class="cls-5" x="33.14" y="55.51" width="96.51" height="11" rx="4.17"/><rect class="cls-3" x="33.14" y="66.74" width="96.51" height="11" rx="4.17"/><path class="cls-4" d="M35.89,78.5V75.14a3.82,3.82,0,0,1,3.82-3.82h88.87a3.62,3.62,0,0,1,.94.13,3.81,3.81,0,0,0-3.69-2.88H37a3.82,3.82,0,0,0-3.82,3.82v3.36A3.82,3.82,0,0,0,36,79.44,3.62,3.62,0,0,1,35.89,78.5Z"/><rect class="cls-5" x="33.14" y="66.74" width="96.51" height="11" rx="4.17"/><polygon class="cls-3" points="54.04 101.21 43.37 101.21 36.39 125.62 44.35 125.62 54.04 101.21"/><polygon class="cls-4" points="45.2 106.7 51.86 106.7 54.04 101.21 43.37 101.21 36.39 125.62 39.8 125.62 45.2 106.7"/><polygon class="cls-5" points="54.04 101.21 43.37 101.21 36.39 125.62 44.35 125.62 54.04 101.21"/><polygon class="cls-3" points="108.77 101.21 119.45 101.21 126.42 125.62 118.46 125.62 108.77 101.21"/><polygon class="cls-4" points="114.27 105.79 122.06 105.79 121.28 103.04 110.61 103.04 120.29 127.45 122.87 127.45 114.27 105.79"/><polygon class="cls-5" points="108.77 101.21 119.45 101.21 126.42 125.62 118.46 125.62 108.77 101.21"/><path class="cls-3" d="M112.76,36h0A4.06,4.06,0,0,1,116.82,40V91.16a0,0,0,0,1,0,0h-8.12a0,0,0,0,1,0,0V40A4.06,4.06,0,0,1,112.76,36Z"/><path class="cls-4" d="M112.36,41.88a4.05,4.05,0,0,1,3.8-4,4.06,4.06,0,0,0-7.47,2.2V91.16h3.67Z"/><path class="cls-6" d="M113.07,36h0A4.06,4.06,0,0,1,117.13,40V91.16a0,0,0,0,1,0,0H109a0,0,0,0,1,0,0V40A4.06,4.06,0,0,1,113.07,36Z"/><path class="cls-3" d="M50.67,36h0A4.06,4.06,0,0,1,54.73,40V91.16a0,0,0,0,1,0,0H46.61a0,0,0,0,1,0,0V40A4.06,4.06,0,0,1,50.67,36Z"/><path class="cls-4" d="M50.28,41.88a4.05,4.05,0,0,1,3.8-4A4.06,4.06,0,0,0,46.61,40V91.16h3.67Z"/><path class="cls-6" d="M50.67,36h0A4.06,4.06,0,0,1,54.73,40V91.16a0,0,0,0,1,0,0H46.61a0,0,0,0,1,0,0V40A4.06,4.06,0,0,1,50.67,36Z"/><rect class="cls-3" x="34.93" y="89.58" width="92.29" height="11" rx="2.38"/><path class="cls-4" d="M38.59,102.06V95.43a2.18,2.18,0,0,1,2.19-2.18h86.4A2.18,2.18,0,0,0,125,91.41H37.11a2.19,2.19,0,0,0-2.18,2.19v6.63a2.19,2.19,0,0,0,2.18,2.18h1.52A2.09,2.09,0,0,1,38.59,102.06Z"/><rect class="cls-6" x="34.93" y="89.58" width="92.29" height="11" rx="2.38"/></g></g></svg>