<svg xmlns="http://www.w3.org/2000/svg" viewBox="0 0 166 198.69"><defs><style>.cls-1{fill:#fff;}.cls-2{fill:#ffe964;}.cls-3{fill:#a59d94;}.cls-3,.cls-4,.cls-5{fill-rule:evenodd;}.cls-4{fill:#91806c;}</style></defs><g id="Layer_2" data-name="Layer 2"><g id="Layer_1-2" data-name="Layer 1"><path class="cls-1" d="M0,83a83,83,0,0,1,166,0c0,45.84-59.07,115.69-83,115.69C58.67,198.69,0,128.84,0,83Z"/><path class="cls-2" d="M157.91,82.77A74.39,74.39,0,1,1,83.52,8.38,74.39,74.39,0,0,1,157.91,82.77Z"/><path class="cls-3" d="M110.57,46.33l6.51,7,3.1-.52s9-9.39,9.76-9.39,4.07,3.7,4.37,8-4,15.31-8.73,18.78a22,22,0,0,1-10.13,4.29,33.83,33.83,0,0,0-9.32,1.63c-4.88,1.55-10.06,5.84-10.06,5.84L53.7,129.82s-6.8,6.36-16.71-.74S31.67,111.92,40.54,105,84,67.31,87.27,60s1.17-17.36,8.8-23.88,19.38-6.29,21.45-5.55,2.81,2.51,2.37,3.92-9.25,10-9.25,10l-.07,1.85ZM43.29,116.47s-2.21,2.29-1.14,4.21a3.2,3.2,0,0,0,4.77,1.15c1.25-1.15,1.62-3.7,1.33-3.81s-1.44-2.88-5-1.55Z"/><path class="cls-4" d="M132.07,45.44a12.13,12.13,0,0,1,2.24,5.92c.29,4.29-4,15.31-8.73,18.78a22,22,0,0,1-10.13,4.29,33.83,33.83,0,0,0-9.32,1.63c-4.88,1.55-10.06,5.84-10.06,5.84L53.7,129.82s-6.8,6.36-16.71-.74l-.33-.25a76.07,76.07,0,0,0,9.6-6.58,2.31,2.31,0,0,0,.66-.42,3.7,3.7,0,0,0,.37-.41A124.57,124.57,0,0,0,57.49,112c34-34.91,38.08-42.23,41.34-42.52s28.75,2.36,32.93-22.5c.09-.54.2-1,.31-1.54Z"/><path class="cls-5" d="M56.46,129.42a13.56,13.56,0,0,1-11.17,5.17A17.28,17.28,0,0,1,29.59,119a13.56,13.56,0,0,1,5.18-11.28q19.47-16.32,38.5-33.17c5.91-5.27,14-13.35,14-21.84A24.34,24.34,0,0,1,118.11,29.2a4.86,4.86,0,0,1,3.63,3.5,5.29,5.29,0,0,1-1.67,4.93l-7.85,7.85a.85.85,0,0,0,0,1.18L117.53,52a.85.85,0,0,0,1.18,0l7.85-7.86a5.31,5.31,0,0,1,4.93-1.66,4.86,4.86,0,0,1,3.5,3.63A24.34,24.34,0,0,1,111.46,77c-8.49,0-16.56,8.05-21.83,14q-16.89,19-33.17,38.5ZM42,116.38a4.14,4.14,0,1,1,0,5.86,4.15,4.15,0,0,1,0-5.86Zm1.18,1.19a2.47,2.47,0,1,0,3.49,0,2.47,2.47,0,0,0-3.49,0Zm10.75,9.7q16.37-19.51,33.25-38.58c6.07-6.82,14.67-15.12,24.35-15.09A21,21,0,0,0,131.76,47c-.49-1.74-1.78-1.54-2.83-.49l-7.85,7.85a4.19,4.19,0,0,1-5.92,0L109.85,49a4.19,4.19,0,0,1,0-5.92l7.85-7.85c1-1,1.25-2.34-.49-2.83A21,21,0,0,0,90.58,52.71c0,9.68-8.26,18.28-15.08,24.35Q56.48,94,36.92,110.3c-12.29,10.3,6.72,29.2,17,17Z"/></g></g></svg>