<svg xmlns="http://www.w3.org/2000/svg" viewBox="0 0 166 198.69"><defs><style>.cls-1{fill:#fff;}.cls-2{fill:#e20000;}.cls-3{fill:#f4f4f4;}.cls-4{fill:#91806c;}</style></defs><g id="Layer_2" data-name="Layer 2"><g id="Layer_1-2" data-name="Layer 1"><path class="cls-1" d="M0,83a83,83,0,0,1,166,0c0,45.84-59.07,115.69-83,115.69C58.67,198.69,0,128.84,0,83Z"/><path class="cls-2" d="M157.91,82.77A74.39,74.39,0,1,1,83.52,8.38,74.39,74.39,0,0,1,157.91,82.77Z"/><path class="cls-3" d="M81.31,62.29A10.15,10.15,0,0,0,88.51,45a10.13,10.13,0,0,0-14.37,0,9.84,9.84,0,0,0-3,7.18A10.23,10.23,0,0,0,81.31,62.29Z"/><polygon class="cls-1" points="90.37 69.12 63.01 69.12 63.01 82.5 71.83 82.5 71.83 113.82 63.01 113.82 63.01 127.2 99.01 127.2 99.01 113.82 90.37 113.82 90.37 69.12"/><path d="M99,108.82H95.37V69.12a5,5,0,0,0-4.77-5A16.71,16.71,0,0,0,92,62.87a14.78,14.78,0,0,0,4.44-10.69A14.94,14.94,0,0,0,92.08,41.5,15.13,15.13,0,1,0,70.64,62.84a17.25,17.25,0,0,0,1.45,1.28H63a5,5,0,0,0-5,5V82.5a5,5,0,0,0,5,5h3.82v21.32H63a5,5,0,0,0-5,5V127.2a5,5,0,0,0,5,5H99a5,5,0,0,0,5-5V113.82A5,5,0,0,0,99,108.82Zm0,18.38H63V113.82h8.82V82.5H63V69.12H90.37v44.7H99ZM88.51,45a9.89,9.89,0,0,1,2.94,7.18A10.1,10.1,0,0,1,74.17,59.3a9.71,9.71,0,0,1-3-7.12A10.17,10.17,0,0,1,81.31,42,9.72,9.72,0,0,1,88.51,45Z"/><path class="cls-4" d="M74.17,54.18A10.17,10.17,0,0,1,84.31,44a10,10,0,0,1,4,.76A10.11,10.11,0,0,0,74.14,45a9.84,9.84,0,0,0-3,7.18,9.71,9.71,0,0,0,3,7.12,10,10,0,0,0,3.25,2.22l-.25-.22A9.71,9.71,0,0,1,74.17,54.18Z"/><polygon class="cls-4" points="74.83 116.07 74.83 82.49 71.83 82.49 71.83 113.73 63.01 113.73 63.01 127.2 66.01 127.2 66.01 116.07 74.83 116.07"/><polygon class="cls-4" points="90.37 72.12 90.37 69.12 63.01 69.12 63.01 82.5 66.01 82.5 66.01 72.12 90.37 72.12"/><rect class="cls-4" x="90.36" y="113.82" width="8.65" height="2.59"/></g></g></svg>