<svg xmlns="http://www.w3.org/2000/svg" viewBox="0 0 166 198.69"><defs><style>.cls-1{fill:#fff;}.cls-2{fill:#ffa362;}.cls-3{fill:#9bdd9b;}.cls-3,.cls-5,.cls-6{stroke:#000;stroke-linejoin:round;stroke-width:4px;}.cls-4{fill:#02686d;}.cls-5{fill:#407c41;}.cls-6{fill:#40737f;}</style></defs><g id="Layer_2" data-name="Layer 2"><g id="Layer_1-2" data-name="Layer 1"><path class="cls-1" d="M0,83a83,83,0,0,1,166,0c0,45.84-59.07,115.69-83,115.69C58.67,198.69,0,128.84,0,83Z"/><circle class="cls-2" cx="83" cy="83" r="74.55"/><ellipse class="cls-3" cx="57.8" cy="125.51" rx="20.92" ry="7.94"/><ellipse class="cls-3" cx="107.69" cy="125.51" rx="20.92" ry="7.94"/><rect class="cls-4" x="52.21" y="46.22" width="19.24" height="7.38"/><rect class="cls-4" x="76.04" y="77.76" width="15.21" height="8.95"/><rect class="cls-4" x="94.83" y="46.22" width="19.24" height="7.38"/><path class="cls-5" d="M74.7,105.84H43.26a1.91,1.91,0,0,1-1.9-1.9l5.71-48a1.91,1.91,0,0,1,1.9-1.9h26a1.91,1.91,0,0,1,1.9,1.9l-.22,48A1.91,1.91,0,0,1,74.7,105.84Z"/><path class="cls-5" d="M91.47,105.84h31.44a1.91,1.91,0,0,0,1.9-1.9L119.1,56a1.91,1.91,0,0,0-1.9-1.9H91.25a1.91,1.91,0,0,0-1.9,1.9l.22,48A1.91,1.91,0,0,0,91.47,105.84Z"/><rect class="cls-6" x="59.26" y="60.87" width="47.48" height="18.29" rx="9.14"/><circle cx="67.76" cy="70.33" r="2.52"/><circle cx="97.85" cy="70.33" r="2.52"/><rect class="cls-5" x="48.52" y="36.15" width="26.85" height="10.63" rx="4.09"/><rect class="cls-5" x="91.25" y="36.15" width="26.85" height="10.63" rx="4.09"/><path class="cls-5" d="M78.16,125.19H38.9a2.68,2.68,0,0,1-2.68-2.68L37.45,109a2.69,2.69,0,0,1,2.68-2.68h38A2.7,2.7,0,0,1,80.85,109v13.54A2.69,2.69,0,0,1,78.16,125.19Z"/><path class="cls-5" d="M88.12,125.19h39.26a2.69,2.69,0,0,0,2.69-2.68L128.84,109a2.7,2.7,0,0,0-2.69-2.68h-38A2.7,2.7,0,0,0,85.43,109v13.54A2.69,2.69,0,0,0,88.12,125.19Z"/></g></g></svg>