<svg xmlns="http://www.w3.org/2000/svg" viewBox="0 0 166 198.69"><defs><style>.cls-1{fill:#fff;}.cls-2{fill:#ffe964;}.cls-3{fill:#ff4e00;}.cls-4{fill:#d02200;}.cls-5{fill:#dbdbdb;}</style></defs><g id="Layer_2" data-name="Layer 2"><g id="Layer_1-2" data-name="Layer 1"><path class="cls-1" d="M0,83a83,83,0,0,1,166,0c0,45.84-59.07,115.69-83,115.69C58.67,198.69,0,128.84,0,83Z"/><circle class="cls-2" cx="83" cy="83" r="74.55"/><path class="cls-3" d="M100.47,133.62c-5.32,0-31.59-.41-42.72-8.31l-.26.08c-5.42,1.63-8.4,2.54-10.69,2.54-3.74,0-5.19-2.49-6.26-4.82-4.06-8.83-5.7-34.69-.41-42.95a6.27,6.27,0,0,1,5.38-3.29c6.74,0,10.18,1,11.9,2.15a7.44,7.44,0,0,0,2.9-1.8c2.7-2.45,4.59-5.3,7-8.89.73-1.11,1.51-2.28,2.36-3.51a38.15,38.15,0,0,1,3.71-4.42,42.22,42.22,0,0,0,6.39-8.3c2.58-4.36,2.93-8.87,3.22-12.49.26-3.39.49-6.33,2.93-7.6a8.24,8.24,0,0,1,3.7-.91c3.47,0,6.66,2.3,9,6.47,3.37,6,4.64,15.56.57,22.2-.81,1.32-1.47,4.3-2,6.7-.11.47-.21.92-.31,1.37H99l6.9,0h12.41a19.1,19.1,0,0,1,8,1.66c3.57,2,4.9,6.68,4.63,10.23a12.23,12.23,0,0,1-2,4.88l.16.2a15.39,15.39,0,0,1,2.17,12.5,9.49,9.49,0,0,1-2.43,3.36,25.36,25.36,0,0,1,1.19,9.38c-.11,2.1-1.84,4.14-3.6,5.39,0,.8.08,1.91.1,3.49v.13c.06,6.46-4,9.89-15.32,13.12-1.3.37-2.64.73-4,1.06A42.55,42.55,0,0,1,100.47,133.62Z"/><path d="M89.6,33.6C97,33.6,102.38,49.75,97,58.47c-1.65,2.7-2.37,8.9-3.42,11.89,1.89,0,3.68,0,5.41,0,4.74,0,9,0,13.79,0h5.52a16.82,16.82,0,0,1,6.77,1.36c2.48,1.36,3.53,5,3.32,7.85-.12,1.62-2.19,4.68-2.9,5.67l.15,0c1.59,0,4.77,6.38,3.21,11.36-.34,1.05-2.48,2.89-3.11,3.78.81.5,2,4.67,1.75,9.57-.08,1.58-2.25,3.58-3.78,4.19a34.49,34.49,0,0,1,.28,5c0,4.52-2.2,7.48-13.5,10.7-1.2.34-2.5.68-3.91,1a39,39,0,0,1-6.15.3c-11.16,0-33.87-1.57-42.2-8.58-6,1.82-9.36,2.89-11.46,2.89s-2.92-1-4-3.36c-4.38-9.54-5.91-42.7,2.7-42.7,9.84,0,11,2.2,11,2.2l.35,0c1.68,0,3.39-1,5.1-2.51,3.82-3.47,6.07-7.55,9.72-12.84,2.76-4,6-5.84,10.2-12.87,5.1-8.62,2.39-17.7,5.16-19.14a5.67,5.67,0,0,1,2.54-.63m0-5a10.58,10.58,0,0,0-4.79,1.17h-.06c-3.67,1.91-4,5.83-4.28,9.63-.26,3.36-.59,7.55-2.87,11.41a40.42,40.42,0,0,1-6.06,7.86,39.68,39.68,0,0,0-4,4.71C66.72,64.66,66,65.82,65.2,67c-2.29,3.45-4.1,6.18-6.58,8.43a9.05,9.05,0,0,1-1.09.85c-2.66-1.24-6.64-1.86-12-1.86A8.75,8.75,0,0,0,38,78.81c-3.51,5.48-4,15.49-3.7,22.93.25,7.24,1.41,16.92,3.93,22.41.87,1.88,2.88,6.28,8.54,6.28,2.52,0,5.45-.85,10.56-2.39,12.29,7.67,37.81,8.08,43.1,8.08,5.56,0,6.91-.33,7.35-.44,1.38-.35,2.75-.71,4.07-1.08,10.64-3,17.22-6.68,17.14-15.55v-.15c0-.89,0-1.64-.05-2.29a9.63,9.63,0,0,0,3.55-6.43,32.1,32.1,0,0,0-.87-8.86,9.23,9.23,0,0,0,2-3.24,17.87,17.87,0,0,0-1.77-13.56,10.92,10.92,0,0,0,1.54-4.59c.33-4.47-1.36-10.1-5.9-12.6a21.36,21.36,0,0,0-9.18-2H105.94l-6,0a19.8,19.8,0,0,1,1.31-4.27c4.57-7.45,3.2-18.08-.52-24.72C98,31.42,94,28.6,89.6,28.6Z"/><path class="cls-4" d="M110.52,129.79c-1.2.34-2.5.68-3.91,1-3,.76-37.62.75-48.35-8.28-11.95,3.6-13.28,4.25-15.45-.47-4.38-9.54-5.91-42.7,2.7-42.7,9.84,0,11,2.2,11,2.2,1.79.15,3.62-.84,5.45-2.49a286.59,286.59,0,0,0-1.8,28.85,21.34,21.34,0,0,0,.58,6.28c2,6.63,9.43,9.78,16.13,11.5A130.63,130.63,0,0,0,110.52,129.79Z"/><path class="cls-1" d="M46.2,130.94c-.62,0-1.11,0-1.42-.05l-.86-.07c-3.45-.27-11.55-.9-13.26-8.47-4-17.63-3.83-32.1.42-43,.88-2.26,2.9-3.84,6-4.69a23.47,23.47,0,0,1,6.25-.73c.74,0,1.44,0,2.08.06l2.77.15c4.67.28,10.47.63,10.84,7.3a50.34,50.34,0,0,1-.85,7.82,67,67,0,0,0-1,9.28l0,.18c.3,2.67.8,6.82,1.3,10.92,1.05,8.71,1.51,12.62,1.53,13.42a6.08,6.08,0,0,1-1.82,4.4C55.07,130.6,48.76,130.94,46.2,130.94Z"/><path d="M43.33,76.42c.69,0,1.34,0,1.94,0l2.77.16c5.36.32,8.26.83,8.49,4.94.15,2.71-2.12,13.61-1.86,17.19,0,.07,0,.13,0,.2.77,6.83,2.8,22.87,2.82,24.13,0,4.61-7.93,5.35-11.31,5.35a11.89,11.89,0,0,1-1.19,0c-3-.29-10.48-.26-11.91-6.6-3.53-15.65-4.05-30.37.31-41.55.65-1.67,2.32-2.64,4.33-3.19a21.62,21.62,0,0,1,5.59-.64m0-5a26,26,0,0,0-6.92.82c-4.86,1.33-6.85,4.1-7.66,6.2-4.44,11.37-4.62,26.34-.53,44.46,2.12,9.37,11.85,10.13,15.51,10.41l.79.07c.59.05,1.24.06,1.68.06,3.58,0,10.12-.55,13.77-4.23A8.5,8.5,0,0,0,62.51,123c0-.92-.35-3.75-1.55-13.73-.49-4-1-8.15-1.29-10.84a.49.49,0,0,1,0-.12,71.55,71.55,0,0,1,1-8.73,49.43,49.43,0,0,0,.88-8.33C61,72.4,52.77,71.9,48.34,71.64l-1.2-.07-1.59-.09q-1.12-.06-2.22-.06Z"/><path class="cls-5" d="M57.51,123.09c0,5.32-10.57,5.49-12.5,5.31-3-.29-10.48-.26-11.91-6.6-3.53-15.65-4.05-30.37.31-41.55.65-1.67,2.32-2.64,4.33-3.19a53.24,53.24,0,0,0-1.88,38.85,14.23,14.23,0,0,0,2.29,4.57c2.93,3.55,8.09,4,12.69,4.25.91,0,2.86.74,3.64.27,1.31-.79.54-3.25.54-4.78,0-11.29-3.71-22.66-1.39-33.71.52-2.53,1.37-4.73-.26-6.73-1-1.24-3.21-3.51-5-1.22-1.93,2.52-10.32-1.41-10.67-1.5a24.61,24.61,0,0,1,7.53-.59l2.77.16c5.36.32,8.26.83,8.49,4.94.15,2.71-2.12,13.61-1.86,17.19,0,.07,0,.13,0,.2C55.46,105.79,57.49,121.83,57.51,123.09Z"/><path class="cls-5" d="M44.32,126.51a19.73,19.73,0,0,1,4-.61c-2.1.1-5.4-21.37-5.67-23.66A43.58,43.58,0,0,0,44.32,126.51Z"/><path class="cls-4" d="M125.53,85.23s-7.55-1.7-13.7,1.38C111.83,86.61,110.58,91.3,125.53,85.23Z"/><path class="cls-4" d="M125.77,100.35s-12.7-3.89-14,1.22S125.77,100.35,125.77,100.35Z"/><path class="cls-4" d="M123.75,114.11s-9.82-1.29-11.92,2.93S123.75,114.11,123.75,114.11Z"/><path class="cls-1" d="M94.88,50.45a4,4,0,0,1,.11-.52,14.43,14.43,0,0,0,.31-1.48,10.77,10.77,0,0,0,.12-2.29,9.61,9.61,0,0,0-.16-1.37,12,12,0,0,0-.37-1.46h0l-.21-.58-.24-.57h0a10.25,10.25,0,0,0-.72-1.31,11,11,0,0,0-.82-1.11,11.54,11.54,0,0,0-1.65-1.6c-.52-.39-.94-.68-1.24-.86a4.18,4.18,0,0,1-.44-.31s.14.13.37.39a12.55,12.55,0,0,1,.87,1.19c.16.26.35.54.52.86s.38.65.55,1,.37.74.56,1.14.37.81.54,1.25h0l.22.51c.06.18.13.35.19.53h0c.18.44.31.87.46,1.28s.26.82.36,1.21.21.77.3,1.12.14.68.2,1a12.32,12.32,0,0,1,.18,1.46C94.89,50.27,94.88,50.45,94.88,50.45Z"/><path class="cls-1" d="M126.1,80.32a2.12,2.12,0,0,1-.11-.42,5.13,5.13,0,0,0-.12-.51c-.07-.2-.11-.44-.21-.69s-.21-.52-.36-.8-.34-.57-.56-.86a7.61,7.61,0,0,0-.78-.85,7.15,7.15,0,0,0-1-.75h0l-.45-.26L122,75h0a6.84,6.84,0,0,0-1.19-.38,6.75,6.75,0,0,0-1.15-.13,6.64,6.64,0,0,0-1,0c-.32,0-.61.12-.87.17s-.48.17-.67.24a3.89,3.89,0,0,0-.48.2,2.86,2.86,0,0,1-.41.16,2.14,2.14,0,0,1,.43-.05,4.54,4.54,0,0,1,1.18.05c.24,0,.51.07.78.15a6.33,6.33,0,0,1,.87.24c.3.08.61.21.93.33s.64.26.95.43h0l.39.18.38.21h0c.32.16.61.35.91.52s.56.36.81.56a8.17,8.17,0,0,1,.7.56,7.84,7.84,0,0,1,.58.55,4.62,4.62,0,0,1,.73.92C126,80.18,126.1,80.32,126.1,80.32Z"/><path class="cls-1" d="M124.66,92.92s.15-.21.35-.73a2.11,2.11,0,0,0,.06-1,2.2,2.2,0,0,0-.52-1.09h0l-.18-.19-.2-.16h0a2.2,2.2,0,0,0-1.13-.43,2.16,2.16,0,0,0-1,.14c-.49.24-.68.43-.69.4a.68.68,0,0,1,.19,0,1.1,1.1,0,0,1,.49.18,2.79,2.79,0,0,1,.56.43,3.2,3.2,0,0,1,.27.25l.27.27h0l.12.1.1.11h0c.1.08.18.17.29.25s.19.16.27.25a2.46,2.46,0,0,1,.46.52,1.1,1.1,0,0,1,.22.48A.46.46,0,0,1,124.66,92.92Z"/><path class="cls-1" d="M124.38,107.47s0-.25,0-.77a2.09,2.09,0,0,0-1.28-1.54h0l-.24-.08-.24-.06h0a2.15,2.15,0,0,0-1.14.11,2.24,2.24,0,0,0-.76.51c-.33.41-.43.64-.45.63a.5.5,0,0,1,.18-.06,1.13,1.13,0,0,1,.5,0,3.51,3.51,0,0,1,.66.16l.33.11c.11,0,.23.07.34.12h0l.14,0,.13.05h0l.69.16a3.43,3.43,0,0,1,.64.21,1.26,1.26,0,0,1,.42.28A.67.67,0,0,1,124.38,107.47Z"/><path class="cls-1" d="M121,119.56a.46.46,0,0,1-.15,0l-.42-.21a2.94,2.94,0,0,0-1.37-.36h0l-.16,0h-.16a3.07,3.07,0,0,0-1.28.62,2.78,2.78,0,0,1-.37.29.45.45,0,0,1-.14.07.46.46,0,0,1,.15,0,2.44,2.44,0,0,1,.42.2,3.11,3.11,0,0,0,1.38.37h0l.16,0h.15a3,3,0,0,0,1.28-.63,3.24,3.24,0,0,1,.37-.28A.45.45,0,0,1,121,119.56Z"/><path class="cls-1" d="M104,84.44a.47.47,0,0,1,0-.19,2.29,2.29,0,0,1,.1-.52c.06-.25.11-.49.17-.73a5.23,5.23,0,0,0,.11-.82h0v-.34h0a7,7,0,0,0-.1-.83l-.17-.73a2.69,2.69,0,0,1-.09-.52.81.81,0,0,1,0-.18,2.79,2.79,0,0,1-.48.55,3,3,0,0,0-.76,1.65h0v.44h0a3,3,0,0,0,.74,1.66A3.76,3.76,0,0,1,104,84.44Z"/><path class="cls-1" d="M106,97.8a.44.44,0,0,1,0-.17,2.35,2.35,0,0,1,.13-.48c.06-.2.12-.43.18-.68a3.33,3.33,0,0,0,.08-.78h0v-.16l0-.16h0a3.69,3.69,0,0,0-.2-.76c-.1-.24-.19-.46-.29-.65a2.24,2.24,0,0,1-.2-.45.54.54,0,0,1,0-.16.55.55,0,0,1-.07.15,3.73,3.73,0,0,1-.28.42,2.94,2.94,0,0,0-.52,1.55h0v.37h0a2.89,2.89,0,0,0,.75,1.45c.15.16.27.29.34.38A.46.46,0,0,1,106,97.8Z"/><path class="cls-1" d="M106.93,113.93a.47.47,0,0,1-.07-.16,1.85,1.85,0,0,1-.08-.5c0-.21,0-.44,0-.69a6.15,6.15,0,0,0-.06-.73h0l0-.15,0-.14h0a7.36,7.36,0,0,0-.22-.71c-.08-.23-.15-.45-.21-.65a1.7,1.7,0,0,1-.11-.49.5.5,0,0,1,0-.18,5.36,5.36,0,0,1-.48.53,2.78,2.78,0,0,0-.43.71,2.39,2.39,0,0,0-.15,1h0l0,.22.05.22h0a2.22,2.22,0,0,0,.51.89,2.4,2.4,0,0,0,.66.51A4.77,4.77,0,0,1,106.93,113.93Z"/><path class="cls-1" d="M106.52,128.13a.67.67,0,0,1,0-.21,2.43,2.43,0,0,1,.18-.55c.08-.22.18-.48.29-.76s.2-.57.28-.87h0l0-.19,0-.18h0c.06-.31.09-.62.12-.91s0-.57.05-.81a3.09,3.09,0,0,1,.08-.58.62.62,0,0,1,.07-.19,6.67,6.67,0,0,1-.66.47,3.5,3.5,0,0,0-.67.63,3,3,0,0,0-.53,1h0l-.06.23-.05.24h0a3.23,3.23,0,0,0,.06,1.13,3.85,3.85,0,0,0,.34.85A5.29,5.29,0,0,1,106.52,128.13Z"/></g></g></svg>