<?xml version="1.0" standalone="no"?>
<!DOCTYPE svg PUBLIC "-//W3C//DTD SVG 20010904//EN"
 "http://www.w3.org/TR/2001/REC-SVG-20010904/DTD/svg10.dtd">
<svg version="1.0" xmlns="http://www.w3.org/2000/svg"
 width="512.000000pt" height="512.000000pt" viewBox="0 0 512.000000 512.000000"
 preserveAspectRatio="xMidYMid meet">

<g transform="translate(0.000000,512.000000) scale(0.100000,-0.100000)"
fill="#000000" stroke="none">
<path d="M2384 5110 c-950 -64 -1797 -665 -2172 -1540 -210 -489 -262 -1048
-146 -1570 186 -835 787 -1526 1592 -1831 666 -253 1399 -218 2031 97 259 129
438 254 639 449 655 632 923 1519 726 2405 -150 673 -575 1264 -1170 1625
-352 215 -739 336 -1164 365 -158 11 -173 11 -336 0z m1669 -2498 c103 -779
188 -1423 187 -1429 0 -10 -47 -13 -199 -13 l-198 0 -21 152 c-11 84 -84 638
-163 1231 l-143 1077 -956 -2 -955 -3 -162 -1215 c-89 -668 -162 -1221 -162
-1227 -1 -10 -49 -13 -206 -13 l-204 0 4 28 c3 15 86 639 185 1387 99 748 183
1379 186 1403 l6 42 1307 0 1306 0 188 -1418z m-805 -799 l2 -183 -690 0 -690
0 0 185 0 185 688 -2 687 -3 3 -182z"/>
</g>
</svg>
