<svg xmlns="http://www.w3.org/2000/svg" viewBox="0 0 166 198.69"><defs><style>.cls-1{isolation:isolate;}.cls-12,.cls-14,.cls-2{fill:#fff;}.cls-3{fill:#91ce6e;}.cls-15,.cls-4,.cls-5{fill:#b65534;}.cls-10,.cls-13,.cls-5,.cls-9{mix-blend-mode:multiply;}.cls-6{fill:#760e00;}.cls-7{fill:#f00e24;}.cls-8{fill:#c70e24;}.cls-9{fill:#930e24;}.cls-10{fill:#b91522;}.cls-11{fill:#dbecd9;mix-blend-mode:hard-light;opacity:0.3;}.cls-12{mix-blend-mode:color-dodge;}.cls-12,.cls-14{opacity:0.7;}.cls-13{fill:#840e00;}.cls-14{mix-blend-mode:lighten;}.cls-15{mix-blend-mode:screen;}</style></defs><g class="cls-1"><g id="Layer_2" data-name="Layer 2"><g id="Layer_1-2" data-name="Layer 1"><path class="cls-2" d="M0,83a83,83,0,0,1,166,0c0,45.84-59.07,115.69-83,115.69C58.67,198.69,0,128.84,0,83Z"/><circle class="cls-3" cx="83" cy="83" r="74.55"/><path class="cls-4" d="M76.52,34.85c-1.59,0-2.63-.69-2.63-1.76V28.61c0-1.08,1-1.77,2.63-1.77s2.64.69,2.64,1.77v4.48C79.16,34.16,78.13,34.85,76.52,34.85Z"/><path d="M76.52,28.1c.76,0,1.38.23,1.38.51v4.48c0,.27-.62.5-1.38.5s-1.36-.23-1.36-.5V28.61c0-.28.61-.51,1.36-.51m0-2.52c-2.67,0-3.89,1.57-3.89,3v4.48c0,1.5,1.2,3,3.89,3s3.9-1.53,3.9-3V28.61c0-1.51-1.2-3-3.9-3Z"/><path class="cls-4" d="M82.22,34.85c-1.6,0-2.63-.69-2.63-1.76V28.61c0-1.08,1-1.77,2.63-1.77s2.64.69,2.64,1.77v4.48C84.86,34.16,83.82,34.85,82.22,34.85Z"/><path d="M82.22,28.1c.76,0,1.38.23,1.38.51v4.48c0,.27-.62.5-1.38.5s-1.37-.23-1.37-.5V28.61c0-.28.62-.51,1.37-.51m0-2.52c-2.67,0-3.89,1.57-3.89,3v4.48c0,1.5,1.2,3,3.89,3s3.9-1.53,3.9-3V28.61c0-1.51-1.2-3-3.9-3Z"/><path class="cls-4" d="M87.92,34.85c-1.6,0-2.63-.69-2.63-1.76V28.61c0-1.08,1-1.77,2.63-1.77s2.64.69,2.64,1.77v4.48C90.56,34.16,89.52,34.85,87.92,34.85Z"/><path d="M87.92,28.1c.76,0,1.37.23,1.37.51v4.48c0,.27-.61.5-1.37.5s-1.37-.23-1.37-.5V28.61c0-.28.62-.51,1.37-.51m0-2.52c-2.68,0-3.9,1.57-3.9,3v4.48c0,1.5,1.21,3,3.9,3s3.9-1.53,3.9-3V28.61c0-1.51-1.21-3-3.9-3Z"/><path class="cls-5" d="M82,20l-.12,0-.07.38h.91L82.59,20A1.34,1.34,0,0,0,82,20Z"/><path class="cls-4" d="M83.33,21.2a1.11,1.11,0,1,1-1.1-1.11A1.11,1.11,0,0,1,83.33,21.2Z"/><path class="cls-5" d="M81.14,21a1.11,1.11,0,1,0,2.17,0Z"/><rect class="cls-4" x="80.39" y="21.18" width="3.7" height="0.63"/><rect class="cls-5" x="80.39" y="21.45" width="3.7" height="0.36"/><path class="cls-4" d="M72.28,29.11a1.27,1.27,0,0,1-1.16-.87,1.26,1.26,0,0,1,.42-1.39l8.1-6.3a1.26,1.26,0,0,1,.77-.27h3.67a1.26,1.26,0,0,1,.77.27l8.1,6.3a1.26,1.26,0,0,1,.42,1.39,1.27,1.27,0,0,1-1.16.87l-10,.32Z"/><path d="M84.08,21.55l8.09,6.3-9.89.31h-.06l-9.9-.31,8.09-6.3h3.67m0-2.53H80.41a2.57,2.57,0,0,0-1.55.53l-8.09,6.3a2.53,2.53,0,0,0,1.47,4.52l9.79.31h.34l9.88-.32a2.53,2.53,0,0,0,1.47-4.52l-8.09-6.3A2.55,2.55,0,0,0,84.08,19Z"/><path class="cls-4" d="M81.75,21.61a1.26,1.26,0,0,1-1-.47,1.23,1.23,0,0,1-.26-1l.41-2.19a1.26,1.26,0,0,1,1.22-1h0a1.26,1.26,0,0,1,1.23,1l.5,2.2a1.24,1.24,0,0,1-.25,1.08,1.28,1.28,0,0,1-1,.47Z"/><path d="M82.18,18.16l.5,2.2h-.91l.41-2.19m0-2.53h-.05a2.54,2.54,0,0,0-2.43,2.06l-.41,2.19a2.52,2.52,0,0,0,2.43,3l.92,0h0a2.52,2.52,0,0,0,2-.93,2.55,2.55,0,0,0,.51-2.16l-.51-2.2a2.52,2.52,0,0,0-2.46-2Z"/><polygon class="cls-6" points="84.16 21.61 86.72 28.02 92.17 27.85 84.16 21.61"/><polygon class="cls-7" points="72.32 27.85 77.83 28.02 80.41 21.55 72.32 27.85"/><polygon class="cls-8" points="84.08 21.55 82.28 21.55 82.22 21.55 80.41 21.55 77.83 28.02 82.22 28.16 82.22 28.16 82.25 28.16 82.28 28.16 82.28 28.16 86.72 28.02 84.16 21.61 84.08 21.55"/><path class="cls-9" d="M73.31,27.13h17.9S80.43,27.37,73.31,27.13Z"/><path class="cls-9" d="M74.53,26.13H90S80.69,26.35,74.53,26.13Z"/><path class="cls-9" d="M76,25.16H88.57S81,25.33,76,25.16Z"/><path class="cls-9" d="M77.16,24.19H87.39S81.23,24.33,77.16,24.19Z"/><path class="cls-9" d="M78.44,23.25h7.67S81.49,23.35,78.44,23.25Z"/><path class="cls-9" d="M79.72,22.32h5.11S81.75,22.39,79.72,22.32Z"/><path class="cls-10" d="M77.17,26.81a.22.22,0,0,0,.23.09s.14,0,.18-.09S77,26.69,77.17,26.81Z"/><path class="cls-10" d="M76.33,26.58a.15.15,0,0,0,.15.06s.08,0,.1-.06S76.23,26.51,76.33,26.58Z"/><path class="cls-10" d="M76.9,26.38a.1.1,0,0,0,.1.05s.06,0,.07-.05S76.83,26.34,76.9,26.38Z"/><path class="cls-10" d="M77.52,24.68a.13.13,0,0,0,.11.05s.08,0,.09-.05S77.44,24.62,77.52,24.68Z"/><path class="cls-10" d="M77.1,24.57a.08.08,0,0,0,.07,0s0,0,0,0S77.05,24.53,77.1,24.57Z"/><path class="cls-10" d="M77.38,24.47s0,0,.05,0l0,0S77.35,24.44,77.38,24.47Z"/><path class="cls-10" d="M79.9,23.94a.22.22,0,0,0,.22.09.34.34,0,0,0,.17-.09C80.32,23.87,79.76,23.83,79.9,23.94Z"/><path class="cls-10" d="M79.1,23.72a.14.14,0,0,0,.14.06.24.24,0,0,0,.11-.06S79,23.65,79.1,23.72Z"/><path class="cls-10" d="M79.64,23.54a.11.11,0,0,0,.17,0S79.58,23.49,79.64,23.54Z"/><path class="cls-10" d="M80,26.85a.23.23,0,0,0,.22.09.34.34,0,0,0,.17-.09C80.46,26.78,79.89,26.74,80,26.85Z"/><path class="cls-10" d="M82.39,25.54a.18.18,0,0,0,.17.07s.1,0,.12-.07S82.29,25.46,82.39,25.54Z"/><path class="cls-10" d="M84.33,24.53a.16.16,0,0,0,.16.07s.11,0,.13-.07S84.22,24.45,84.33,24.53Z"/><path class="cls-10" d="M81.48,24.6a.16.16,0,0,0,.16.07s.11,0,.13-.07S81.37,24.52,81.48,24.6Z"/><path class="cls-10" d="M84,23.88a.17.17,0,0,0,.17.07s.1,0,.13-.07S83.94,23.8,84,23.88Z"/><path class="cls-10" d="M82.24,22.77a.18.18,0,0,0,.17.07s.1,0,.12-.07S82.13,22.69,82.24,22.77Z"/><path class="cls-10" d="M79.36,22.79a.11.11,0,0,0,.12.05s.08,0,.09-.05S79.28,22.73,79.36,22.79Z"/><path class="cls-10" d="M83.2,22a.14.14,0,0,0,.13.05s.07,0,.09-.05S83.13,21.91,83.2,22Z"/><path class="cls-10" d="M80.83,21.92A.11.11,0,0,0,81,22s.07,0,.09,0S80.75,21.86,80.83,21.92Z"/><path class="cls-10" d="M83.4,26.65a.16.16,0,0,0,.13.06s.07,0,.09-.06S83.32,26.6,83.4,26.65Z"/><path class="cls-10" d="M85.44,27.52a.19.19,0,0,0,.18.07s.11,0,.13-.07S85.33,27.43,85.44,27.52Z"/><path class="cls-10" d="M87.67,27.57a.11.11,0,0,0,.11.05s.07,0,.09-.05S87.6,27.52,87.67,27.57Z"/><path class="cls-10" d="M90.86,27.48a.17.17,0,0,0,.16.07s.1,0,.12-.07S90.76,27.4,90.86,27.48Z"/><path class="cls-10" d="M89.62,26.91a.2.2,0,0,0,.16.07s.1,0,.12-.07S89.52,26.83,89.62,26.91Z"/><path class="cls-10" d="M86.35,25.5a.16.16,0,0,0,.16.07.22.22,0,0,0,.12-.07S86.25,25.43,86.35,25.5Z"/><path class="cls-10" d="M87.11,24.74a.11.11,0,0,0,.11,0s.07,0,.09,0S87,24.68,87.11,24.74Z"/><path class="cls-10" d="M85.42,23.55a.11.11,0,0,0,.11,0s.07,0,.08,0S85.35,23.5,85.42,23.55Z"/><path class="cls-10" d="M79.07,26a.12.12,0,0,0,.13.05s.09,0,.11-.05S79,25.91,79.07,26Z"/><path class="cls-10" d="M79.6,25.8a.13.13,0,0,0,.1,0s.06,0,.07,0S79.54,25.75,79.6,25.8Z"/><path class="cls-10" d="M75.18,27.18a.25.25,0,0,0,.24.09s.14,0,.18-.09S75,27.06,75.18,27.18Z"/><path class="cls-10" d="M74.35,27a.14.14,0,0,0,.14.06s.09,0,.11-.06S74.25,26.88,74.35,27Z"/><path class="cls-10" d="M74.92,26.76s0,0,.1,0,.06,0,.07,0S74.85,26.71,74.92,26.76Z"/><path class="cls-10" d="M78,25.74a.16.16,0,0,0,.16.06s.09,0,.11-.06S77.9,25.66,78,25.74Z"/><path class="cls-10" d="M77.44,25.58a.1.1,0,0,0,.1,0s.06,0,.07,0S77.38,25.54,77.44,25.58Z"/><path class="cls-10" d="M77.82,25.46a.07.07,0,0,0,.07,0s0,0,0,0S77.78,25.42,77.82,25.46Z"/><polygon class="cls-11" points="80.32 21.67 72.41 27.88 76.47 27.85 72.81 27.76 73.69 27.11 77.52 27.13 73.93 26.96 74.78 26.27 77.88 26.15 74.95 26.13 76.13 25.26 78.38 25.16 76.29 25.15 77.3 24.33 78.83 24.22 77.42 24.18 78.41 23.35 79.48 23.27 78.61 23.25 79.58 22.48 80.03 22.34 79.72 22.33 80.32 21.67"/><path class="cls-12" d="M80.41,21.55l-2.49,6.29S80,22.86,80.41,21.55Z"/><path class="cls-13" d="M92.17,27.85l-8.09-6.3.2.64-4.08.12,4.1.07.29.82-4.19.07,4.23.11.2.72-5.42.11,5.49.12.22.71-4.62.11,4.72.16.2.71L79,26.15l6.42,0,.22.68-5.47.26,5.58.19.15.37-8.07.15ZM85.9,25.67l.42-.07-.49-.1-.42-1.06.15,0-.21,0-.3-.85.14,0-.25-.11-.39-1,.39.06.44.38-.14.12h.21l.3.26-.63.1.75.08,1,.71-1.43.15,1.5.05.61.54-1.16.2,1.34,0,.22.17-2,0,2.21.24.15.17-1.2.31,1.41-.08.35.34h-2.6l2.82.25.22.24L87,26.71l2.4.09.34.36H86.85l3,.24.35.33-3.41.08-.3-.65.4-.16-.44,0Z"/><path class="cls-14" d="M84.08,21.55l2.57,6.26S84.48,22.18,84.08,21.55Z"/><rect class="cls-4" x="72.67" y="27.89" width="19.15" height="1.04"/><rect class="cls-5" x="72.67" y="28.3" width="19.15" height="0.44"/><rect class="cls-5" x="72.67" y="27.89" width="19.15" height="0.73"/><rect class="cls-4" x="72.29" y="27.85" width="19.91" height="0.64"/><rect class="cls-5" x="72.29" y="27.85" width="19.91" height="0.13"/><path class="cls-4" d="M66.18,134.19a1.82,1.82,0,0,1-1.82-1.82V113.75l-.58,0v18.49A1.83,1.83,0,0,1,62,134H59.42a1.83,1.83,0,0,1-1.82-1.82V113.47l-.5,0v18.77A1.82,1.82,0,0,1,55.28,134H52.74a1.79,1.79,0,0,1-1.13-.4,1.9,1.9,0,0,1-.77.26l-2.7.25H48a1.81,1.81,0,0,1-1.81-1.65L40.42,70.73a1.82,1.82,0,0,1,1.64-2l2.7-.25h.17a1.81,1.81,0,0,1,1.16.41,1.83,1.83,0,0,1,.65,1.24l.19,2,1.42-2a1.85,1.85,0,0,1,1.5-.78,1.74,1.74,0,0,1,.39,0l3.06.67a1.83,1.83,0,0,1,1.31,1.15,1.79,1.79,0,0,1-.26,1.73c-.87,1.15-4.82,6.31-6.57,8.35l2.37,25.55,14.21.59V81.17c-1.89-2.22-6.27-8-6.47-8.24a1.79,1.79,0,0,1-.26-1.73,1.83,1.83,0,0,1,1.31-1.15L62,69.38a1.74,1.74,0,0,1,.39,0,1.82,1.82,0,0,1,1.49.78l.48.68v-.45a1.82,1.82,0,0,1,1.82-1.82h3A1.81,1.81,0,0,1,71,70.34v.41l.45-.64a1.78,1.78,0,0,1,1.89-.73l3,.67a1.82,1.82,0,0,1,1.06,2.88c-.2.27-4.55,6-6.45,8.2v51.24a1.81,1.81,0,0,1-1.82,1.82Zm-15.26-19v-2h-.18Z"/><path d="M44.93,70.31l.65,7,4.27-6.12,3,.68s-5.94,7.8-7,8.82l2.6,27.93,17.69.74V80.48c-1.41-1.51-6.85-8.65-6.85-8.65l3.06-.68,3.79,5.43V70.34h3v6.2l3.76-5.39,3.06.68s-5.37,7-6.82,8.62v51.92h-3V112L62,111.83v20.39H59.42V111.73l-4.14-.18v20.67H52.74V111.45l-4-.17,1.93,20.8-2.7.25L42.23,70.57l2.7-.26m0-3.63h-.34l-2.7.25a3.63,3.63,0,0,0-3.28,4l5.74,61.77A3.63,3.63,0,0,0,48,136h.34l2.7-.25a4,4,0,0,0,.48-.08,3.52,3.52,0,0,0,1.26.23h2.54a3.61,3.61,0,0,0,2.07-.65,3.61,3.61,0,0,0,2.07.65H62a3.6,3.6,0,0,0,2-.6,3.67,3.67,0,0,0,2.22.75h3a3.64,3.64,0,0,0,3.64-3.64V81.79c2-2.46,5.6-7.14,6.07-7.76a3.64,3.64,0,0,0-2.1-5.76l-3.06-.67a3.55,3.55,0,0,0-.79-.09,3.86,3.86,0,0,0-1.22.21,3.66,3.66,0,0,0-2.54-1h-3a3.61,3.61,0,0,0-2.54,1,3.78,3.78,0,0,0-1.25-.22,3.46,3.46,0,0,0-.78.09l-3.06.67a3.67,3.67,0,0,0-2.43,1.85,3.69,3.69,0,0,0-2.43-1.85l-3.06-.67a3.46,3.46,0,0,0-.78-.09,3.71,3.71,0,0,0-2,.61,3.53,3.53,0,0,0-2.9-1.44Zm4.73,15.19c1.8-2.17,4.73-6,6.14-7.84a3.27,3.27,0,0,0,.32-.5,3.27,3.27,0,0,0,.32.5c.47.63,4.07,5.34,6.1,7.8v23.7l-10.72-.45L49.66,81.87Z"/><polygon class="cls-15" points="48.64 132.27 47.98 132.33 42.25 70.56 42.91 70.5 48.64 132.27"/><rect class="cls-15" x="66.16" y="70.34" width="0.66" height="62.04"/><path class="cls-4" d="M94.58,134.19a1.81,1.81,0,0,1-1.82-1.82V81.13c-1.9-2.23-6.25-7.93-6.45-8.2a1.82,1.82,0,0,1,1.06-2.88l3-.67a1.9,1.9,0,0,1,.4,0,1.84,1.84,0,0,1,1.49.78l.45.64v-.41a1.81,1.81,0,0,1,1.82-1.82h3a1.82,1.82,0,0,1,1.82,1.82v.45l.48-.68a1.82,1.82,0,0,1,1.49-.78,1.74,1.74,0,0,1,.39,0l3.06.67a1.83,1.83,0,0,1,1.31,1.15,1.79,1.79,0,0,1-.26,1.73c-.2.27-4.58,6-6.47,8.24v26.25l14.21-.59,2.37-25.55c-1.75-2-5.7-7.2-6.57-8.35a1.79,1.79,0,0,1-.26-1.73,1.83,1.83,0,0,1,1.31-1.15l3.06-.67a1.74,1.74,0,0,1,.39,0,1.85,1.85,0,0,1,1.5.78l1.42,2,.19-2a1.8,1.8,0,0,1,1.81-1.65H119l2.7.25a1.82,1.82,0,0,1,1.64,2l-5.74,61.77a1.81,1.81,0,0,1-1.81,1.65h-.17l-2.7-.25a1.9,1.9,0,0,1-.77-.26,1.79,1.79,0,0,1-1.13.4h-2.54a1.82,1.82,0,0,1-1.82-1.82V113.45l-.5,0v18.75A1.83,1.83,0,0,1,104.3,134h-2.54a1.83,1.83,0,0,1-1.82-1.82V113.73l-.58,0v18.62a1.82,1.82,0,0,1-1.82,1.82Zm18.22-19,.18-2h-.18Z"/><path d="M118.79,70.31l2.7.26-5.74,61.76-2.7-.25,1.93-20.8-4,.17v20.77h-2.54V111.55l-4.14.18v20.49h-2.54V111.83l-4.22.18v20.36h-3V80.45c-1.45-1.57-6.82-8.62-6.82-8.62l3.06-.68,3.76,5.39v-6.2h3v6.24l3.79-5.43,3.06.68S99,79,97.54,80.48v28.84l17.69-.74,2.6-27.93c-1.07-1-7-8.82-7-8.82l3.05-.68,4.27,6.12.65-7m0-3.63a3.53,3.53,0,0,0-2.9,1.44,3.71,3.71,0,0,0-2-.61,3.46,3.46,0,0,0-.78.09l-3.06.67a3.69,3.69,0,0,0-2.43,1.85,3.67,3.67,0,0,0-2.43-1.85l-3.06-.67a3.46,3.46,0,0,0-.78-.09,3.78,3.78,0,0,0-1.25.22,3.61,3.61,0,0,0-2.54-1h-3a3.66,3.66,0,0,0-2.54,1,3.86,3.86,0,0,0-1.22-.21,3.55,3.55,0,0,0-.79.09L87,68.27A3.64,3.64,0,0,0,84.87,74c.47.62,4,5.3,6.07,7.76v50.58A3.64,3.64,0,0,0,94.58,136h3a3.67,3.67,0,0,0,2.22-.75,3.6,3.6,0,0,0,2,.6h2.54a3.61,3.61,0,0,0,2.07-.65,3.61,3.61,0,0,0,2.07.65H111a3.52,3.52,0,0,0,1.26-.23,4,4,0,0,0,.48.08l2.7.25h.34a3.63,3.63,0,0,0,3.61-3.3l5.74-61.77a3.61,3.61,0,0,0-.82-2.66,3.66,3.66,0,0,0-2.46-1.3l-2.7-.25ZM101.18,81.83c2-2.46,5.63-7.17,6.1-7.8a3.27,3.27,0,0,0,.32-.5,3.27,3.27,0,0,0,.32.5c1.41,1.86,4.34,5.67,6.14,7.84l-2.15,23.21-10.73.45V81.83Z"/><polygon class="cls-15" points="115.08 132.27 115.73 132.33 121.47 70.56 120.81 70.5 115.08 132.27"/><rect class="cls-15" x="96.9" y="70.34" width="0.66" height="62.04"/><rect class="cls-4" x="41.81" y="129.43" width="80.16" height="8.21" rx="1.82"/><path d="M120.15,131.25v4.57H43.63v-4.57h76.52m0-3.64H43.63A3.64,3.64,0,0,0,40,131.25v4.57a3.64,3.64,0,0,0,3.64,3.64h76.52a3.64,3.64,0,0,0,3.64-3.64v-4.57a3.64,3.64,0,0,0-3.64-3.64Z"/><rect class="cls-15" x="43.63" y="131.26" width="76.52" height="1.95"/><path class="cls-4" d="M41.47,75.65a1.82,1.82,0,0,1-1.82-1.82v-.75A1.82,1.82,0,0,1,38,71.27V67.58a1.81,1.81,0,0,1,1.82-1.81h84.8a1.82,1.82,0,0,1,1.82,1.81v3.69a1.82,1.82,0,0,1-1.63,1.81v.75A1.81,1.81,0,0,1,123,75.65Z"/><path d="M124.65,67.58v3.69H123v2.56H41.47V71.27H39.85V67.58h84.8m0-3.63H39.85a3.63,3.63,0,0,0-3.64,3.63v3.69a3.66,3.66,0,0,0,1.65,3,3.64,3.64,0,0,0,3.61,3.15H123a3.64,3.64,0,0,0,3.61-3.15,3.63,3.63,0,0,0,1.66-3V67.58A3.63,3.63,0,0,0,124.65,64Z"/><rect class="cls-5" x="41.47" y="71.28" width="81.55" height="1.04"/><rect class="cls-5" x="39.85" y="67.58" width="84.8" height="0.55"/><path class="cls-4" d="M82.1,68.47l-.25,0L36.34,67a2,2,0,0,1-1.15-3.54l37.38-29.1A2,2,0,0,1,73.78,34H90.71a2,2,0,0,1,1.21.41l37.38,29.1A2,2,0,0,1,128.15,67L82.64,68.45l-.25,0Z"/><path d="M90.71,35.92,128.09,65l-45.7,1.46H82.1L36.41,65l37.37-29.1H90.71m0-4H73.78a4,4,0,0,0-2.42.84L34,61.91A3.95,3.95,0,0,0,36.28,69l45.44,1.45.38,0h.29l.39,0L128.21,69a3.95,3.95,0,0,0,2.3-7.06L93.13,32.81A3.93,3.93,0,0,0,90.71,32Z"/><polygon class="cls-6" points="91.09 36.22 102.9 65.83 128.09 65.02 91.09 36.22"/><polygon class="cls-7" points="36.41 65.02 61.86 65.84 73.78 35.92 36.41 65.02"/><polygon class="cls-8" points="90.71 35.92 82.39 35.92 82.1 35.92 73.78 35.92 61.86 65.84 82.1 66.48 82.1 66.49 82.25 66.49 82.39 66.49 82.39 66.48 102.9 65.83 91.09 36.22 90.71 35.92"/><path class="cls-9" d="M41,61.71h82.65S73.85,62.84,41,61.71Z"/><path class="cls-9" d="M46.62,57.11h71.51S75.08,58.1,46.62,57.11Z"/><path class="cls-9" d="M53.33,52.6h58.1S76.45,53.4,53.33,52.6Z"/><path class="cls-9" d="M58.74,48.16H106S77.55,48.8,58.74,48.16Z"/><path class="cls-9" d="M64.65,43.78h35.46S78.76,44.27,64.65,43.78Z"/><path class="cls-9" d="M70.56,39.48H94.2S80,39.81,70.56,39.48Z"/><path class="cls-10" d="M58.78,60.21a1.11,1.11,0,0,0,1.08.45s.67-.13.82-.45S58.09,59.68,58.78,60.21Z"/><path class="cls-10" d="M54.92,59.17a.69.69,0,0,0,.67.27s.41-.08.51-.27S54.48,58.83,54.92,59.17Z"/><path class="cls-10" d="M57.54,58.28a.48.48,0,0,0,.46.19s.29-.06.35-.19S57.24,58.05,57.54,58.28Z"/><path class="cls-10" d="M60.4,50.4a.55.55,0,0,0,.54.22s.33-.06.41-.22S60.05,50.13,60.4,50.4Z"/><path class="cls-10" d="M58.46,49.88a.35.35,0,0,0,.34.13s.2,0,.25-.13S58.24,49.71,58.46,49.88Z"/><path class="cls-10" d="M59.78,49.43a.22.22,0,0,0,.23.09s.14,0,.17-.09S59.63,49.31,59.78,49.43Z"/><path class="cls-10" d="M71.39,47a1,1,0,0,0,1,.42s.63-.12.78-.42S70.73,46.46,71.39,47Z"/><path class="cls-10" d="M67.73,46a.65.65,0,0,0,.64.26s.39-.07.48-.26S67.32,45.66,67.73,46Z"/><path class="cls-10" d="M70.22,45.14a.44.44,0,0,0,.43.18s.27,0,.34-.18S69.94,44.92,70.22,45.14Z"/><path class="cls-10" d="M72,60.41a1,1,0,0,0,1,.42s.63-.12.78-.42S71.38,59.9,72,60.41Z"/><path class="cls-10" d="M82.91,54.38a.79.79,0,0,0,.77.31s.47-.08.59-.31S82.42,54,82.91,54.38Z"/><path class="cls-10" d="M91.86,49.72a.77.77,0,0,0,.77.31s.47-.09.58-.31S91.36,49.34,91.86,49.72Z"/><path class="cls-10" d="M78.69,50a.8.8,0,0,0,.77.32s.47-.09.58-.32S78.2,49.65,78.69,50Z"/><path class="cls-10" d="M90.54,46.69a.78.78,0,0,0,.76.32s.48-.09.59-.32S90,46.31,90.54,46.69Z"/><path class="cls-10" d="M82.22,41.59a.79.79,0,0,0,.77.32s.47-.09.58-.32S81.73,41.21,82.22,41.59Z"/><path class="cls-10" d="M68.91,41.67a.56.56,0,0,0,.56.23s.35-.06.43-.23S68.54,41.39,68.91,41.67Z"/><path class="cls-10" d="M86.67,37.89a.58.58,0,0,0,.57.24s.35-.07.43-.24S86.31,37.61,86.67,37.89Z"/><path class="cls-10" d="M75.68,37.66a.57.57,0,0,0,.57.23s.35-.06.43-.23S75.32,37.38,75.68,37.66Z"/><path class="cls-10" d="M87.59,59.52a.57.57,0,0,0,.57.23s.34-.06.43-.23S87.23,59.24,87.59,59.52Z"/><path class="cls-10" d="M97,63.51a.83.83,0,0,0,.81.33s.51-.09.62-.33S96.48,63.1,97,63.51Z"/><path class="cls-10" d="M107.3,63.77a.53.53,0,0,0,.51.2s.31,0,.39-.2S107,63.51,107.3,63.77Z"/><path class="cls-10" d="M122.05,63.34a.72.72,0,0,0,.73.3s.45-.08.55-.3S121.58,63,122.05,63.34Z"/><path class="cls-10" d="M116.32,60.7a.73.73,0,0,0,.72.3s.45-.09.56-.3S115.84,60.34,116.32,60.7Z"/><path class="cls-10" d="M101.2,54.21a.73.73,0,0,0,.72.3s.45-.09.56-.3S100.73,53.85,101.2,54.21Z"/><path class="cls-10" d="M104.73,50.66a.5.5,0,0,0,.5.21s.31-.06.38-.21S104.4,50.41,104.73,50.66Z"/><path class="cls-10" d="M96.91,45.18a.53.53,0,0,0,.51.21s.31-.06.38-.21S96.59,44.94,96.91,45.18Z"/><path class="cls-10" d="M67.56,56.4a.65.65,0,0,0,.64.26s.39-.08.48-.26S67.16,56.08,67.56,56.4Z"/><path class="cls-10" d="M70.05,55.55a.43.43,0,0,0,.44.18s.26,0,.33-.18S69.77,55.33,70.05,55.55Z"/><path class="cls-10" d="M49.63,61.94a1.09,1.09,0,0,0,1.07.44s.67-.13.83-.44S48.93,61.4,49.63,61.94Z"/><path class="cls-10" d="M45.76,60.89a.7.7,0,0,0,.67.28s.41-.08.51-.28S45.33,60.55,45.76,60.89Z"/><path class="cls-10" d="M48.38,60a.51.51,0,0,0,.47.19s.28-.06.35-.19S48.09,59.77,48.38,60Z"/><path class="cls-10" d="M62.63,55.28a.73.73,0,0,0,.72.3s.45-.09.56-.3S62.17,54.92,62.63,55.28Z"/><path class="cls-10" d="M60.06,54.58a.43.43,0,0,0,.44.18s.28,0,.34-.18S59.77,54.36,60.06,54.58Z"/><path class="cls-10" d="M61.81,54a.3.3,0,0,0,.3.13s.19,0,.24-.13S61.61,53.83,61.81,54Z"/><polygon class="cls-11" points="73.36 36.51 36.81 65.15 55.56 65.02 38.68 64.6 42.71 61.65 60.41 61.71 43.85 60.95 47.75 57.74 62.05 57.17 48.57 57.11 53.99 53.08 64.38 52.63 54.74 52.57 59.41 48.79 66.46 48.29 59.97 48.1 64.51 44.26 69.49 43.88 65.45 43.77 69.95 40.25 72.01 39.59 70.56 39.53 73.36 36.51"/><path class="cls-12" d="M73.78,35.92,62.26,65S72.08,42,73.78,35.92Z"/><path class="cls-13" d="M128.09,65,90.71,35.92l.91,3-18.84.57,19,.32,1.33,3.78-19.34.31,19.53.5.94,3.34-25.07.51,25.39.56,1,3.28-21.36.5L96,53.33l1,3.27-29.48.57,29.67.19,1,3.15-25.26,1.2,25.76.88.7,1.7L62,65Zm-29-10,2-.32-2.27-.44-2-4.91.69-.19-.94-.19L95.21,45l.63-.19-1.13-.5-1.83-4.66,1.83.25,2,1.77-.63.56h1l1.38,1.2-2.89.44,3.46.38,4.47,3.27-6.61.7,6.93.25,2.83,2.45-5.35,1,6.17-.13,1,.76-9.07.19,10.2,1.13.7.76L104.72,56l6.49-.38,1.64,1.57h-12l13,1.14,1,1.13-10.71.25,11.08.45,1.58,1.63-13.29.07L117.45,63l1.64,1.51-15.75.38-1.39-3,1.83-.76-2,.19Z"/><path class="cls-14" d="M90.71,35.92l11.87,28.94S92.57,38.86,90.71,35.92Z"/></g></g></g></svg>