<svg xmlns="http://www.w3.org/2000/svg" viewBox="0 0 166 198.69"><defs><style>.cls-1{fill:#fff;}.cls-2{fill:#d6d6d6;}.cls-3{fill:#c7a22f;}.cls-4{fill:#ff2400;}.cls-5{fill:#9b0000;}</style></defs><g id="Layer_2" data-name="Layer 2"><g id="Layer_1-2" data-name="Layer 1"><path class="cls-1" d="M0,83a83,83,0,0,1,166,0c0,45.84-59.07,115.69-83,115.69C58.67,198.69,0,128.84,0,83Z"/><path class="cls-2" d="M83,154.65a71.89,71.89,0,1,1,71.89-71.88A72,72,0,0,1,83,154.65Z"/><path class="cls-3" d="M83,13.38A69.39,69.39,0,1,1,13.62,82.77,69.47,69.47,0,0,1,83,13.38m0-5a74.39,74.39,0,1,0,74.39,74.39A74.38,74.38,0,0,0,83,8.38Z"/><path class="cls-4" d="M74.1,124a2.5,2.5,0,0,1-2.5-2.5V92.53h-29a2.5,2.5,0,0,1-2.5-2.5V72.15a2.5,2.5,0,0,1,2.5-2.5h29V40.7a2.5,2.5,0,0,1,2.5-2.5H91.9a2.5,2.5,0,0,1,2.5,2.5v29h29a2.5,2.5,0,0,1,2.5,2.5V90a2.5,2.5,0,0,1-2.5,2.5h-29v29a2.5,2.5,0,0,1-2.5,2.5Z"/><path d="M91.9,40.7V72.15h31.46V90H91.9v31.45H74.1V90H42.64V72.15H74.1V40.7H91.9m0-5H74.1a5,5,0,0,0-5,5V67.15H42.64a5,5,0,0,0-5,5V90a5,5,0,0,0,5,5H69.1v26.45a5,5,0,0,0,5,5H91.9a5,5,0,0,0,5-5V95h26.46a5,5,0,0,0,5-5V72.15a5,5,0,0,0-5-5H96.9V40.7a5,5,0,0,0-5-5Z"/><path class="cls-5" d="M83.73,121.48H74.1V90H42.64V72.15H74.1V40.7h7.57q-.51,3.49-.93,7.07A241.27,241.27,0,0,0,83.73,121.48Z"/></g></g></svg>