<svg xmlns="http://www.w3.org/2000/svg" shape-rendering="geometricPrecision" text-rendering="geometricPrecision" image-rendering="optimizeQuality" fill-rule="evenodd" clip-rule="evenodd" viewBox="0 0 512 328.372"><path fill="#BCD9E4" d="M37.397 0h437.206C495.172 0 512 16.844 512 37.397v253.579c0 20.553-16.844 37.396-37.397 37.396H37.397C16.844 328.372 0 311.545 0 290.976V37.397C0 16.827 16.827 0 37.397 0z"/><path fill="#87B1BE" d="M37.397 0h437.206C495.172 0 512 16.851 512 37.397v35.915H0V37.397C0 16.827 16.827 0 37.397 0z"/><path fill="#85A9B3" d="M259.738 222.148c-3.118 0-5.629-3.373-5.629-7.507 0-4.134 2.511-7.506 5.629-7.506h194.096c3.118 0 5.629 3.372 5.629 7.506s-2.511 7.507-5.629 7.507H259.738zm.004 45.418c-3.118 0-5.633-3.369-5.633-7.507 0-4.134 2.515-7.506 5.633-7.506h194.092c3.118 0 5.633 3.372 5.633 7.506 0 4.138-2.515 7.507-5.633 7.507H259.742zm-.004-136.068c-3.118 0-5.629-3.372-5.629-7.507 0-4.137 2.511-7.506 5.629-7.506h139.051c3.118 0 5.633 3.369 5.633 7.506 0 4.135-2.515 7.507-5.633 7.507H259.738zm0 45.325c-3.118 0-5.629-3.369-5.629-7.506 0-4.134 2.511-7.507 5.629-7.507h193.896c3.118 0 5.628 3.373 5.628 7.507 0 4.137-2.51 7.506-5.628 7.506H259.738z"/><path fill="#BD2122" d="M158.828 202.913c8.268 10.954 44.222 7.634 59 23.914 7.267 8.009 9.979 17.25 9.979 37.06a2.37 2.37 0 01-2.367 2.37H56.307a2.37 2.37 0 01-2.368-2.37c0-19.289 2.57-28.54 9.42-36.606 16.825-19.826 50.497-9.444 59.171-24.368h36.298z"/><path fill="#DA9C69" d="M94.544 216.087c31.483 30.011 62.168 31.077 93.479-.779-16.002.984-34.658-4.373-29.952-18.89l-.006-.072c-9.27 7.844-23.487 9.055-33.457 1.475-.109 14.89-16.328 19.619-30.064 18.266z"/><path fill="#DEA678" d="M94.538 216.087c15.583 14.857 30.971 22.619 46.337 22.81V202.9c-5.723.171-11.485-1.442-16.267-5.076-.112 14.887-16.339 19.616-30.07 18.263z"/><path fill="#2C2C2C" d="M76.047 206.905c14.643-1.189 20.025-16.401 21.829-32.174 2.748-24.147-1.064-55.215 27.997-66.961 23.077-9.332 52.919 3.231 56.173 36.477-.135 22.593 6.218 61.017 26.439 62.658-4.478 12.612-59.03 13.018-50.2-11.138-10.834 7.466-21.77 8.125-33.707.714 1.437 25.995-44.052 23.036-48.531 10.424z"/><path fill="#E9BE79" d="M160.221 194.308c12.845-14.207 14.796-28.506 11.135-46.753-8.831-4.093-14.607-13.091-17.566-26.609-3.535 25.737-35.142 24.631-43.089 29.314 0 15.102-1.563 25.884 7.185 39.761 1.116 1.772 2.205 3.481 3.52 4.9 10.62 11.45 28.777 10.017 38.815-.613z"/><path fill="#F2CD8C" d="M141.216 139.983c-10.882 6.663-25.468 7.304-30.516 10.278 0 2.166-.053 4.215-.104 6.177-.359 13.249.621 23.005 7.289 33.584 1.117 1.771 2.207 3.48 3.521 4.898 5.355 5.773 12.629 8.272 19.81 7.967v-62.904z"/></svg>